<svg width="339" height="339" viewBox="0 0 339 339" fill="none" xmlns="http://www.w3.org/2000/svg">
<path d="M25.5066 119.965C25.5066 119.965 38.5581 64.8034 89.9911 37.9682C141.424 11.1329 202.763 22.5505 252.711 30.4424C302.659 38.3343 334.431 76.5464 331.034 122.386C327.637 168.226 287.357 172.558 256.603 218.52C225.849 264.481 224.256 281.574 174.714 302.7C125.173 323.827 61.5491 289.065 37.08 227.442C12.611 165.819 25.5066 119.965 25.5066 119.965Z" fill="#0187FF"/>
<path opacity="0.8" d="M25.5066 119.965C25.5066 119.965 38.5581 64.8034 89.9911 37.9682C141.424 11.1329 202.763 22.5505 252.711 30.4424C302.659 38.3343 334.431 76.5464 331.034 122.386C327.637 168.226 287.357 172.558 256.603 218.52C225.849 264.481 224.256 281.574 174.714 302.7C125.173 323.827 61.5491 289.065 37.08 227.442C12.611 165.819 25.5066 119.965 25.5066 119.965Z" fill="white"/>
<path d="M71.1899 83.3936L319.338 315.27" stroke="#263238" stroke-miterlimit="10" stroke-linecap="round"/>
<path d="M103.985 52.8836C104.595 49.6132 104.226 46.2356 102.926 43.1736C101.625 40.1116 99.4499 37.5013 96.6729 35.6695C93.8958 33.8377 90.6402 32.8657 87.3134 32.8753C83.9866 32.8849 80.7366 33.8756 77.9702 35.7234C75.9686 30.8246 72.3263 26.774 67.6669 24.2651C63.0075 21.7562 57.6209 20.9451 52.4293 21.9706C47.2377 22.9961 42.564 25.7945 39.2085 29.8865C35.853 33.9786 34.0244 39.1099 34.0358 44.4018C34.0358 44.6798 34.0358 44.9578 34.0358 45.2425C30.7539 46.1717 27.8919 48.2025 25.9311 50.9935C23.9703 53.7845 23.0302 57.1655 23.2688 60.5681C23.5075 63.9707 24.9104 67.1874 27.2416 69.6773C29.5729 72.1673 32.6903 73.7787 36.0698 74.2406V74.3965H103.26C106.112 74.4927 108.887 73.4517 110.972 71.5025C113.057 69.5533 114.283 66.8556 114.379 64.0028C114.475 61.15 113.434 58.3758 111.485 56.2906C109.536 54.2053 106.838 52.9798 103.985 52.8836V52.8836Z" stroke="#263238" stroke-miterlimit="10"/>
<path d="M155.1 120.562V119.545" stroke="#263238" stroke-linecap="round" stroke-linejoin="round"/>
<path d="M155.1 117.538V46.124" stroke="#263238" stroke-linecap="round" stroke-linejoin="round" stroke-dasharray="2.97 2.97"/>
<path d="M155.1 45.1205V44.1035H154.083" stroke="#263238" stroke-linecap="round" stroke-linejoin="round"/>
<path d="M152.035 44.1035H112.04" stroke="#263238" stroke-linecap="round" stroke-linejoin="round" stroke-dasharray="3.02 3.02"/>
<path d="M111.016 44.1035H109.999" stroke="#263238" stroke-linecap="round" stroke-linejoin="round"/>
<path d="M158.483 119.578L155.1 125.429L151.723 119.578H158.483Z" fill="#263238"/>
<path d="M167.29 93.8412H142.096V58.8496H159.954L167.29 66.1245V93.8412Z" fill="white" stroke="#263238" stroke-linecap="round" stroke-linejoin="round"/>
<path d="M159.954 58.8496V65.9957H167.29L159.954 58.8496Z" fill="white" stroke="#263238" stroke-linecap="round" stroke-linejoin="round"/>
<path d="M145.987 70.627H163.392" stroke="#263238" stroke-linecap="round" stroke-linejoin="round"/>
<path d="M145.987 75.373H163.392" stroke="#263238" stroke-linecap="round" stroke-linejoin="round"/>
<path d="M145.987 80.1191H163.392" stroke="#263238" stroke-linecap="round" stroke-linejoin="round"/>
<path d="M145.987 84.8652H163.392" stroke="#263238" stroke-linecap="round" stroke-linejoin="round"/>
<path d="M118.637 59.976H93.4424V24.9844H111.301L118.637 32.2593V59.976Z" fill="white" stroke="#263238" stroke-linecap="round" stroke-linejoin="round"/>
<path d="M111.301 24.9844V32.1305H118.637L111.301 24.9844Z" fill="white" stroke="#263238" stroke-linecap="round" stroke-linejoin="round"/>
<path d="M97.334 36.7607H114.738" stroke="#263238" stroke-linecap="round" stroke-linejoin="round"/>
<path d="M97.334 41.5068H114.738" stroke="#263238" stroke-linecap="round" stroke-linejoin="round"/>
<path d="M97.334 46.2529H114.738" stroke="#263238" stroke-linecap="round" stroke-linejoin="round"/>
<path d="M97.334 50.999H114.738" stroke="#263238" stroke-linecap="round" stroke-linejoin="round"/>
<path d="M55.8672 282.047V88.9121" stroke="#263238" stroke-linecap="round" stroke-linejoin="round" stroke-dasharray="3 3"/>
<path d="M59.244 89.9029L55.8676 84.0449L52.4844 89.9029H59.244Z" fill="#263238"/>
<path d="M68.8308 249.897H43.6431V214.905H61.4948L68.8308 222.18V249.897Z" fill="white" stroke="#263238" stroke-linecap="round" stroke-linejoin="round"/>
<path d="M61.4946 214.905V222.051H68.8306L61.4946 214.905Z" fill="white" stroke="#263238" stroke-linecap="round" stroke-linejoin="round"/>
<path d="M47.5347 226.683H64.9389" stroke="#263238" stroke-linecap="round" stroke-linejoin="round"/>
<path d="M47.5347 231.428H64.9389" stroke="#263238" stroke-linecap="round" stroke-linejoin="round"/>
<path d="M47.5347 236.174H64.9389" stroke="#263238" stroke-linecap="round" stroke-linejoin="round"/>
<path d="M47.5347 240.92H64.9389" stroke="#263238" stroke-linecap="round" stroke-linejoin="round"/>
<path d="M68.8308 157.011H43.6431V122.02H61.4948L68.8308 129.294V157.011Z" fill="white" stroke="#263238" stroke-linecap="round" stroke-linejoin="round"/>
<path d="M61.4946 122.02V129.166H68.8306L61.4946 122.02Z" fill="white" stroke="#263238" stroke-linecap="round" stroke-linejoin="round"/>
<path d="M47.5347 133.796H64.9389" stroke="#263238" stroke-linecap="round" stroke-linejoin="round"/>
<path d="M47.5347 138.542H64.9389" stroke="#263238" stroke-linecap="round" stroke-linejoin="round"/>
<path d="M47.5347 143.288H64.9389" stroke="#263238" stroke-linecap="round" stroke-linejoin="round"/>
<path d="M47.5347 148.034H64.9389" stroke="#263238" stroke-linecap="round" stroke-linejoin="round"/>
<path d="M266.142 16.5166H215.787L215.123 23.439H266.142V16.5166Z" stroke="#B2B2B2" stroke-miterlimit="10"/>
<path d="M266.142 23.4385H215.787L215.123 30.3609H266.142V23.4385Z" stroke="#B2B2B2" stroke-miterlimit="10"/>
<path d="M266.142 30.3613H215.787L215.123 37.2837H266.142V30.3613Z" stroke="#B2B2B2" stroke-miterlimit="10"/>
<path d="M266.142 37.2832H215.787L215.123 44.2056H266.142V37.2832Z" stroke="#B2B2B2" stroke-miterlimit="10"/>
<path d="M266.142 44.2061H215.787L215.123 51.1284H266.142V44.2061Z" stroke="#B2B2B2" stroke-miterlimit="10"/>
<path d="M266.142 51.1279H215.787L215.123 58.0503H266.142V51.1279Z" stroke="#B2B2B2" stroke-miterlimit="10"/>
<path d="M266.142 58.0508H215.787L215.123 64.9732H266.142V58.0508Z" stroke="#B2B2B2" stroke-miterlimit="10"/>
<path d="M266.142 64.9727H215.787L215.123 71.895H266.142V64.9727Z" stroke="#B2B2B2" stroke-miterlimit="10"/>
<path d="M266.142 71.8955H215.787L215.123 78.8179H266.142V71.8955Z" stroke="#B2B2B2" stroke-miterlimit="10"/>
<path d="M266.142 78.8174H215.787L215.123 85.7398H266.142V78.8174Z" stroke="#B2B2B2" stroke-miterlimit="10"/>
<path d="M266.142 85.7402H215.787L215.123 92.6626H266.142V85.7402Z" stroke="#B2B2B2" stroke-miterlimit="10"/>
<path d="M266.142 92.6621H215.787L215.123 99.5845H266.142V92.6621Z" stroke="#B2B2B2" stroke-miterlimit="10"/>
<path d="M266.142 99.585H215.787L215.123 106.514H266.142V99.585Z" stroke="#B2B2B2" stroke-miterlimit="10"/>
<path d="M266.142 106.514H215.787L215.123 113.436H266.142V106.514Z" stroke="#B2B2B2" stroke-miterlimit="10"/>
<path d="M266.142 113.437H215.787L215.123 120.359H266.142V113.437Z" stroke="#B2B2B2" stroke-miterlimit="10"/>
<path d="M317.908 16.5166H267.553L266.881 23.439H317.908V16.5166Z" stroke="#B2B2B2" stroke-miterlimit="10"/>
<path d="M317.908 23.4385H267.553L266.881 30.3609H317.908V23.4385Z" stroke="#B2B2B2" stroke-miterlimit="10"/>
<path d="M317.908 30.3613H267.553L266.881 37.2837H317.908V30.3613Z" stroke="#B2B2B2" stroke-miterlimit="10"/>
<path d="M317.908 37.2832H267.553L266.881 44.2056H317.908V37.2832Z" stroke="#B2B2B2" stroke-miterlimit="10"/>
<path d="M317.908 44.2061H267.553L266.881 51.1284H317.908V44.2061Z" stroke="#B2B2B2" stroke-miterlimit="10"/>
<path d="M317.908 51.1279H267.553L266.881 58.0503H317.908V51.1279Z" stroke="#B2B2B2" stroke-miterlimit="10"/>
<path d="M317.908 58.0508H267.553L266.881 64.9732H317.908V58.0508Z" stroke="#B2B2B2" stroke-miterlimit="10"/>
<path d="M317.908 64.9727H267.553L266.881 71.895H317.908V64.9727Z" stroke="#B2B2B2" stroke-miterlimit="10"/>
<path d="M317.908 71.8955H267.553L266.881 78.8179H317.908V71.8955Z" stroke="#B2B2B2" stroke-miterlimit="10"/>
<path d="M317.908 78.8174H267.553L266.881 85.7398H317.908V78.8174Z" stroke="#B2B2B2" stroke-miterlimit="10"/>
<path d="M317.908 85.7402H267.553L266.881 92.6626H317.908V85.7402Z" stroke="#B2B2B2" stroke-miterlimit="10"/>
<path d="M317.908 92.6621H267.553L266.881 99.5845H317.908V92.6621Z" stroke="#B2B2B2" stroke-miterlimit="10"/>
<path d="M317.908 99.585H267.553L266.881 106.514H317.908V99.585Z" stroke="#B2B2B2" stroke-miterlimit="10"/>
<path d="M317.908 106.514H267.553L266.881 113.436H317.908V106.514Z" stroke="#B2B2B2" stroke-miterlimit="10"/>
<path d="M317.908 113.437H267.553L266.881 120.359H317.908V113.437Z" stroke="#B2B2B2" stroke-miterlimit="10"/>
<path d="M320.423 11.1533H213.943V16.3739H320.423V11.1533Z" stroke="#B2B2B2" stroke-miterlimit="10"/>
<path d="M320.43 16.374V108.352" stroke="#B2B2B2" stroke-miterlimit="10"/>
<path d="M319.264 16.5234V79.6249" stroke="#B2B2B2" stroke-miterlimit="10"/>
<path d="M321.182 108.148H319.751V110.494H321.182V108.148Z" fill="#263238" stroke="#B2B2B2" stroke-miterlimit="10"/>
<path d="M319.887 79.123H318.457V81.4689H319.887V79.123Z" fill="#263238" stroke="#B2B2B2" stroke-miterlimit="10"/>
<path d="M198.559 106.508C198.559 106.508 180.416 113.396 177.636 115.939C174.856 118.481 158.808 170.145 158.808 170.145H270.678C270.678 170.145 262.386 135.445 260.352 123.729C258.318 112.013 249.328 109.491 244.758 108.569C240.188 107.647 198.559 106.508 198.559 106.508Z" fill="#263238" stroke="#263238" stroke-linecap="round" stroke-linejoin="round"/>
<path d="M229.11 116.305L226.709 170.125H246.107L238.31 111.593L229.11 116.305Z" fill="#0187FF" stroke="#263238" stroke-linecap="round" stroke-linejoin="round"/>
<path d="M200.105 101.992C200.105 101.992 197.108 106.392 197.705 107.795C198.302 109.199 205.109 119.796 211.909 120.996C218.709 122.196 227.307 118.393 231.91 115.572C236.514 112.752 242.507 110.575 243.504 109.972C244.501 109.368 240.907 104.548 239.307 103.775C237.707 103.002 235.707 101.741 235.707 101.741C235.707 101.741 233.51 98.9408 233.11 98.3509C232.71 97.7611 232.507 96.7509 231.91 95.9508C231.689 95.6126 231.394 95.3288 231.048 95.121C230.702 94.9131 230.312 94.7865 229.91 94.7508C228.907 94.5541 227.51 99.551 221.51 100.554C215.509 101.558 200.905 102.155 200.905 102.155L200.105 101.992Z" fill="#0187FF" stroke="#263238" stroke-linecap="round" stroke-linejoin="round"/>
<path d="M218.709 120.996C218.709 120.996 230.31 115.192 231.707 110.596C233.103 105.999 233.11 98.3916 233.11 98.3916" stroke="#263238" stroke-linecap="round" stroke-linejoin="round"/>
<path d="M227.51 115.992C227.51 115.992 232.507 113.796 234.107 110.792C235.707 107.788 235.707 101.795 235.707 101.795" stroke="#263238" stroke-linecap="round" stroke-linejoin="round"/>
<path d="M193.671 77.1295C193.454 77.9431 198.139 101.171 201.495 107.043C204.851 112.914 211.834 116.264 216.031 114.311C220.886 112.04 226.235 107.585 228.554 102.643C228.981 101.727 231.347 91.8353 230.846 91.6658C230.846 91.6658 234.202 92.7845 235.592 86.6351C236.981 80.4856 238.107 76.8515 236.432 73.4954C234.758 70.1393 225.259 62.3152 216.587 63.7322C207.916 65.1493 195.068 71.8208 193.671 77.1295Z" fill="white" stroke="#263238" stroke-linecap="round" stroke-linejoin="round"/>
<path d="M216.872 69.8343C216.872 69.8343 204.573 79.3263 196.186 80.1806C187.799 81.0349 187.806 77.1296 187.806 77.1296C187.806 77.1296 176.904 80.2077 178.022 71.8208C179.141 63.434 195.942 56.7218 195.942 56.7218C195.942 56.7218 190.071 55.0471 192.864 51.9758C195.657 48.9044 206.281 45.5416 213.272 46.3823C220.262 47.223 223.333 48.8977 223.333 48.8977C223.333 48.8977 221.374 43.8669 225.571 45.5077C229.767 47.1484 233.361 55.3251 233.361 55.3251C233.361 55.3251 240.629 55.8878 241.192 57.8405C241.754 59.7931 236.995 60.3423 236.995 60.3423C236.995 60.3423 241.47 68.7292 239.232 73.4819C236.995 78.2347 232.242 79.6314 231.964 80.4721C231.686 81.3128 232.805 84.3842 230.567 83.2655C228.33 82.1468 227.489 77.394 227.489 77.394C227.489 77.394 224.14 74.0447 223.855 72.648C223.57 71.2513 223.299 69.5767 223.299 69.5767C223.299 69.5767 221.34 75.4481 216.872 76.2821C212.404 77.116 216.872 69.8343 216.872 69.8343Z" fill="#263238" stroke="#263238" stroke-linecap="round" stroke-linejoin="round"/>
<path d="M206.79 89.9912C206.79 89.9912 201.203 102.29 204.274 102.568C207.346 102.846 210.146 99.49 210.146 99.49" fill="white"/>
<path d="M206.79 89.9912C206.79 89.9912 201.203 102.29 204.274 102.568C207.346 102.846 210.146 99.49 210.146 99.49" stroke="#263238" stroke-linecap="round" stroke-linejoin="round"/>
<path d="M207.088 104.527C207.088 104.527 210.722 108.44 217.428 103.124" stroke="#263238" stroke-linecap="round" stroke-linejoin="round"/>
<path d="M214.411 92.4453C214.411 92.4453 215.089 94.9743 220.153 94.5132" stroke="#263238" stroke-linecap="round" stroke-linejoin="round"/>
<path d="M203.841 91.9844C203.841 91.9844 202.234 94.0523 200.396 94.0523" stroke="#263238" stroke-linecap="round" stroke-linejoin="round"/>
<path d="M225.354 86.1067C225.354 86.1067 212.397 85.8288 211 86.3915C209.604 86.9542 209.326 90.3036 210.16 92.541C210.994 94.7784 212.96 97.8497 217.991 97.8497C223.021 97.8497 225.537 95.3343 227.211 90.5815C228.886 85.8288 225.354 86.1067 225.354 86.1067Z" stroke="#263238" stroke-linecap="round" stroke-linejoin="round"/>
<path d="M193.379 86.1067C193.379 86.1067 203.353 85.8288 204.431 86.3915C205.509 86.9542 205.719 90.3036 205.109 92.541C204.498 94.7784 202.953 97.8497 199.081 97.8497C195.21 97.8497 193.271 95.3343 191.983 90.5815C190.694 85.8288 193.379 86.1067 193.379 86.1067Z" stroke="#263238" stroke-linecap="round" stroke-linejoin="round"/>
<path d="M227.822 87.686L232.08 82.0586" stroke="#263238" stroke-linecap="round" stroke-linejoin="round"/>
<path d="M211 86.3574H204.363" stroke="#263238" stroke-linecap="round" stroke-linejoin="round"/>
<path d="M209.299 89.0557H205.183" stroke="#263238" stroke-linecap="round" stroke-linejoin="round"/>
<path d="M191.874 87.4078L195.034 85.3535" stroke="#263238" stroke-linecap="round" stroke-linejoin="round"/>
<path d="M217.509 91.0966C217.509 92.1408 217.014 92.995 216.404 92.995C215.794 92.995 215.306 92.1408 215.306 91.0966C215.306 90.0525 215.801 89.1982 216.404 89.1982C217.007 89.1982 217.509 90.0457 217.509 91.0966Z" fill="#263238"/>
<path d="M202.905 90.2968C202.905 91.3477 202.417 92.1952 201.807 92.1952C201.197 92.1952 200.708 91.3477 200.708 90.2968C200.708 89.2459 201.203 88.3984 201.807 88.3984C202.41 88.3984 202.905 89.2459 202.905 90.2968Z" fill="#263238"/>
<path d="M197.705 83.7946C197.705 83.7946 201.705 82.1945 203.705 83.3945" stroke="#263238" stroke-width="2" stroke-linecap="round" stroke-linejoin="round"/>
<path d="M212.892 83.5975C215.628 82.8026 218.565 83.089 221.096 84.3975" stroke="#263238" stroke-width="2" stroke-linecap="round" stroke-linejoin="round"/>
<path d="M148.991 163.432C147.497 162.505 145.824 161.905 144.081 161.671C142.339 161.437 140.567 161.575 138.882 162.076C133.369 163.683 130.617 168.51 130.617 170.117H153.811C153.525 168.726 152.947 167.411 152.116 166.259C151.285 165.106 150.22 164.143 148.991 163.432Z" fill="#808080" stroke="#263238" stroke-linecap="round" stroke-linejoin="round"/>
<path d="M134.746 157.92C134.746 157.92 131.763 162.286 131.763 163.893C131.763 165.5 130.156 167.107 132.441 167.798C134.726 168.49 136.116 160.449 136.116 159.534C136.116 158.618 134.746 157.92 134.746 157.92Z" fill="white" stroke="#263238" stroke-linecap="round" stroke-linejoin="round"/>
<path d="M138.882 157.689C138.882 157.689 135.668 157.011 134.746 157.92C133.824 158.828 132.224 166.883 132.454 167.798C132.685 168.714 134.976 168.944 135.668 168.029C136.359 167.114 138.882 157.689 138.882 157.689Z" fill="white" stroke="#263238" stroke-linecap="round" stroke-linejoin="round"/>
<path d="M152.665 161.365C152.665 161.365 143.017 157.914 140.949 156.537C138.881 155.161 137.736 157.893 137.044 159.527C136.352 161.161 134.746 166.877 134.746 168.484C134.746 170.091 137.275 170.775 137.736 168.938C138.197 167.101 141.871 161.134 141.871 161.134L146.692 162.972C146.692 162.972 147.153 163.65 145.085 165.039C143.017 166.429 140.034 169.399 140.949 169.86C141.865 170.321 144.624 170.091 145.546 169.182C146.468 168.274 151.282 167.114 151.282 167.114C151.282 167.114 155.648 169.874 156.57 170.104C157.492 170.335 163.228 169.182 163.228 169.182C163.228 169.182 156.794 163.67 155.879 162.985C154.859 162.348 153.783 161.806 152.665 161.365Z" fill="white" stroke="#263238" stroke-linecap="round" stroke-linejoin="round"/>
<path d="M239.673 157.798H234.852C232.784 157.798 228.649 156.442 228.418 158.713C228.188 160.985 233.015 162.388 235.307 162.388C237.598 162.388 238.981 161.473 241.741 162.849C244.5 164.226 246.107 165.148 246.107 165.148L242.887 160.09L239.673 157.798Z" fill="white" stroke="#263238" stroke-linecap="round" stroke-linejoin="round"/>
<path d="M258.739 169.738C258.739 169.738 254.372 160.32 252.304 157.337C250.237 154.354 238.066 152.056 236.71 152.056C235.354 152.056 231.883 159.636 232.344 161.473C232.805 163.31 233.7 161.243 234.378 160.117C235.056 158.992 237.592 155.758 237.592 155.758C237.592 155.758 241.497 162.185 243.104 165.629C244.711 169.073 247.931 169.535 249.769 169.996C251.606 170.457 258.739 169.738 258.739 169.738Z" fill="white" stroke="#263238" stroke-linecap="round" stroke-linejoin="round"/>
<path d="M247.47 155.94C247.47 155.94 243.104 150.197 240.805 151.113C238.507 152.028 234.839 163.059 234.378 164.435C233.917 165.812 236.676 164.896 237.131 163.757C237.585 162.618 241.727 156.638 241.727 156.638L245.402 158.937" fill="white"/>
<path d="M247.47 155.94C247.47 155.94 243.104 150.197 240.805 151.113C238.507 152.028 234.839 163.059 234.378 164.435C233.917 165.812 236.676 164.896 237.131 163.757C237.585 162.618 241.727 156.638 241.727 156.638L245.402 158.937" stroke="#263238" stroke-linecap="round" stroke-linejoin="round"/>
<path d="M250.697 155.94C250.697 155.94 246.107 152.035 244.493 152.489C242.88 152.943 237.144 164.205 238.066 164.693C238.988 165.181 240.819 164.232 241.741 162.856C242.663 161.479 244.493 158.259 244.493 158.259L247.944 160.788" fill="white"/>
<path d="M250.697 155.94C250.697 155.94 246.107 152.035 244.493 152.489C242.88 152.943 237.144 164.205 238.066 164.693C238.988 165.181 240.819 164.232 241.741 162.856C242.663 161.479 244.493 158.259 244.493 158.259L247.944 160.788" stroke="#263238" stroke-linecap="round" stroke-linejoin="round"/>
<path d="M252.942 159.1C252.942 159.1 250.697 154.578 249.091 155.269C247.484 155.961 241.972 164.456 243.578 164.456C245.185 164.456 250.013 159.405 250.013 159.405C250.013 159.405 249.552 163.31 250.013 165.371" fill="white"/>
<path d="M252.942 159.1C252.942 159.1 250.697 154.578 249.091 155.269C247.484 155.961 241.972 164.456 243.578 164.456C245.185 164.456 250.013 159.405 250.013 159.405C250.013 159.405 249.552 163.31 250.013 165.371" stroke="#263238" stroke-linecap="round" stroke-linejoin="round"/>
<path d="M186.233 170.124H246.5V168.26H186.233V170.124Z" fill="#808080" stroke="#263238" stroke-linecap="round" stroke-linejoin="round"/>
<path d="M142.238 129.058H202.77L215.035 170.124H154.503L142.238 129.058Z" fill="#808080" stroke="#263238" stroke-linecap="round" stroke-linejoin="round"/>
<path d="M116.779 170.124H330.64" stroke="#263238" stroke-linecap="round" stroke-linejoin="round"/>
<path d="M279.336 148.082C279.336 148.082 280.333 158.679 279.736 162.083C279.139 165.486 277.532 165.88 277.132 167.507C276.732 169.134 279.736 168.91 281.533 168.707C283.329 168.503 285.329 159.893 287.533 149.309" fill="white"/>
<path d="M279.336 148.082C279.336 148.082 280.333 158.679 279.736 162.083C279.139 165.486 277.532 165.88 277.132 167.507C276.732 169.134 279.736 168.91 281.533 168.707C283.329 168.503 285.329 159.893 287.533 149.309" stroke="#263238" stroke-linecap="round" stroke-linejoin="round"/>
<path d="M295.289 167.378C295.289 167.378 290.733 167.914 290.597 169.12C290.462 170.327 291.398 171.263 294.882 171.398C298.367 171.534 307.344 171.134 308.822 170.327C310.3 169.52 305.473 168.293 302.524 167.914C299.574 167.534 295.289 167.378 295.289 167.378Z" fill="white" stroke="#263238" stroke-linecap="round" stroke-linejoin="round"/>
<path d="M276.109 125.281C276.109 125.281 271.309 128.881 270.909 137.085C270.508 145.288 277.302 151.479 280.692 152.882C284.082 154.285 288.292 155.682 289.506 156.679C290.72 157.675 291.011 163.459 292.706 166.083C295.289 170.063 302.307 171.683 311.107 170.68C319.908 169.676 320.077 160.008 320.904 153.479C321.881 145.77 317.304 132.888 311.704 129.498C306.104 126.108 297.106 127.098 294.306 126.494C292.429 125.997 290.708 125.034 289.303 123.694C287.207 122.569 284.816 122.118 282.455 122.402C280.094 122.686 277.878 123.691 276.109 125.281Z" fill="white" stroke="#263238" stroke-linecap="round" stroke-linejoin="round"/>
<path d="M291.093 123.396C291.832 125.769 288.835 128.82 284.408 130.176C279.98 131.532 275.79 130.745 275.051 128.372C274.312 125.999 277.302 122.948 281.736 121.592C286.17 120.236 290.354 121.009 291.093 123.396Z" fill="#0187FF" stroke="#263238" stroke-linecap="round" stroke-linejoin="round"/>
<path d="M282.652 132.698C282.792 133.149 282.795 133.631 282.66 134.084C282.526 134.537 282.261 134.939 281.898 135.241C281.534 135.543 281.09 135.73 280.62 135.779C280.151 135.828 279.677 135.737 279.259 135.516C278.842 135.296 278.499 134.957 278.274 134.542C278.049 134.127 277.952 133.654 277.996 133.184C278.04 132.714 278.222 132.267 278.52 131.901C278.818 131.534 279.217 131.264 279.669 131.125C280.273 130.94 280.925 131.002 281.484 131.297C282.043 131.591 282.463 132.095 282.652 132.698Z" fill="#263238" stroke="#263238" stroke-linecap="round" stroke-linejoin="round"/>
<path d="M284.909 146.882C284.909 146.882 284.909 156.882 284.509 161.079C284.109 165.276 283.309 166.279 282.109 167.079C280.909 167.879 280.706 169.283 282.509 169.88C284.313 170.476 286.706 169.683 287.303 168.883C287.899 168.083 291.906 157.479 294.706 148.482" fill="white"/>
<path d="M284.909 146.882C284.909 146.882 284.909 156.882 284.509 161.079C284.109 165.276 283.309 166.279 282.109 167.079C280.909 167.879 280.706 169.283 282.509 169.88C284.313 170.476 286.706 169.683 287.303 168.883C287.899 168.083 291.906 157.479 294.706 148.482" stroke="#263238" stroke-linecap="round" stroke-linejoin="round"/>
<path d="M319.941 162.15C319.941 162.15 325.304 165.479 323.704 170.083C322.104 174.687 304.503 175.683 291.303 175.683C278.102 175.683 264.305 174.68 265.539 170.259C266.772 165.839 276.339 168.863 285.736 169.459C295.133 170.056 315.29 170.225 317.141 167.663C318.3 165.949 319.241 164.097 319.941 162.15Z" fill="white" stroke="#263238" stroke-linecap="round" stroke-linejoin="round"/>
<path d="M259.579 107.958C260.43 109.547 261.412 111.062 262.515 112.487C263.147 113.31 263.894 114.038 264.732 114.65C264.732 114.65 267.342 110.399 266.434 108.602C265.525 106.805 259.579 107.958 259.579 107.958Z" fill="white" stroke="#263238" stroke-linecap="round" stroke-linejoin="round"/>
<path d="M288.516 97.5029C289.094 98.976 289.388 100.545 289.384 102.127C289.384 104.839 288.808 105.924 288.808 105.924L283.703 103.632C283.703 103.632 286.943 98.2013 288.516 97.5029Z" fill="white" stroke="#263238" stroke-linecap="round" stroke-linejoin="round"/>
<path d="M265.539 110.093C265.539 110.093 262.067 116.989 264.542 121.396C267.017 125.803 272.678 127.335 275.139 127.633C277.6 127.932 281.716 128.949 285.404 125.552C289.092 122.155 289.594 121.931 289.594 121.931C289.594 121.931 294.937 116.385 293.994 110.405C293.052 104.425 285.14 103.056 285.14 103.056L288.53 97.5029C288.53 97.5029 283.709 99.1572 282.17 100.215C281.211 100.854 280.217 101.44 279.194 101.971C277.095 101.945 275.01 102.299 273.037 103.015C270.872 104.015 268.81 105.226 266.881 106.629C266.881 106.629 259.179 107.158 259.593 107.985C260.006 108.812 265.539 110.093 265.539 110.093Z" fill="white" stroke="#263238" stroke-linecap="round" stroke-linejoin="round"/>
<path d="M275.776 120.603C276.775 120.694 277.78 120.514 278.685 120.08C280.116 119.355 279.533 118.541 278.644 118.474C277.678 118.506 276.74 118.804 275.932 119.335C275.268 119.748 275.092 120.087 275.776 120.603Z" fill="white" stroke="#263238" stroke-linecap="round" stroke-linejoin="round"/>
<path d="M275.994 117.016C275.994 117.016 273.282 117.775 273.058 119.348C272.834 120.921 274.61 121.979 275.702 121.091C276.341 120.582 276.804 119.885 277.024 119.098C277.024 119.098 279.797 120.65 280.997 119.62C282.197 118.589 282.563 117.131 281.499 116.386C280.434 115.64 275.994 117.016 275.994 117.016Z" fill="white" stroke="#263238" stroke-linecap="round" stroke-linejoin="round"/>
<path d="M278.048 116.494C278.048 116.494 275.79 116.948 275.553 117.321C275.315 117.694 276.231 119.206 277.099 118.86C277.414 118.696 277.688 118.462 277.901 118.177C278.113 117.892 278.259 117.562 278.326 117.213C278.358 117.079 278.348 116.939 278.299 116.81C278.249 116.682 278.162 116.572 278.048 116.494Z" fill="#263238" stroke="#263238" stroke-linecap="round" stroke-linejoin="round"/>
<path d="M272.149 114.541C272.664 115.564 272.651 116.615 272.108 116.88C271.566 117.144 270.752 116.541 270.21 115.524C269.668 114.507 269.708 113.449 270.21 113.185C270.712 112.92 271.634 113.517 272.149 114.541Z" fill="#263238"/>
<path d="M280.347 112.141C280.808 113.192 280.733 114.236 280.184 114.48C279.635 114.724 278.828 114.06 278.353 113.009C277.879 111.958 277.967 110.914 278.516 110.677C279.065 110.439 279.886 111.09 280.347 112.141Z" fill="#263238"/>
<path d="M220.119 319.264C218.426 319.178 216.762 318.782 215.211 318.098C214.797 317.918 214.472 317.581 214.307 317.161C214.141 316.742 214.149 316.274 214.329 315.86C214.509 315.447 214.846 315.121 215.265 314.956C215.685 314.791 216.153 314.799 216.567 314.979C218.133 315.657 220.14 316.05 220.682 315.819C221.665 314.714 223.191 308.002 221.225 304.802C221.12 304.576 220.964 304.379 220.768 304.225C220.572 304.072 220.343 303.968 220.099 303.921C218.98 303.771 217.326 304.917 216.743 305.466C216.414 305.773 215.976 305.936 215.527 305.92C215.078 305.904 214.653 305.711 214.346 305.382C214.04 305.053 213.876 304.615 213.892 304.166C213.908 303.716 214.102 303.291 214.431 302.985C214.743 302.693 217.557 300.151 220.533 300.558C221.275 300.669 221.983 300.95 222.6 301.378C223.217 301.806 223.727 302.369 224.092 303.026C226.988 307.731 225.001 316.701 222.784 318.477C222.01 319.032 221.071 319.309 220.119 319.264Z" fill="#263238" stroke="#263238" stroke-linecap="round" stroke-linejoin="round"/>
<path d="M217.116 299.168H198.383V324.03H217.116V299.168Z" fill="#263238" stroke="#263238" stroke-linecap="round" stroke-linejoin="round"/>
<path d="M200.084 297.805C200.084 297.805 200.084 295.737 203.875 293.669C207.665 291.601 209.746 288.489 207.671 282.624C205.597 276.76 205.949 272.617 210.092 269.166" stroke="#263238" stroke-linecap="round" stroke-linejoin="round"/>
<path d="M200.946 275.736C201.136 273.214 202.268 271.085 204.566 269.166" stroke="#263238" stroke-linecap="round" stroke-linejoin="round"/>
<path d="M202.153 282.624C201.777 281.579 201.471 280.51 201.237 279.424" stroke="#263238" stroke-linecap="round" stroke-linejoin="round"/>
<path d="M215.496 284.644C215.348 283.955 215.155 283.275 214.919 282.61C214.811 282.292 214.702 281.98 214.607 281.675" stroke="#263238" stroke-linecap="round" stroke-linejoin="round"/>
<path d="M207.326 297.805C207.326 297.805 207.326 295.737 211.122 293.669C213.618 292.313 215.36 290.503 215.685 287.771" stroke="#263238" stroke-linecap="round" stroke-linejoin="round"/>
<path d="M249.144 294.252C249.144 294.252 247.043 291.58 244.758 290.441C242.473 289.302 237.707 288.34 237.707 288.34C237.707 288.34 241.897 287.39 245.165 288.15C248.433 288.909 250.697 292.157 250.697 292.157C250.697 292.157 249.741 290.801 248.405 286.814C247.07 282.827 247.049 274.237 247.049 274.237C249.081 276.613 250.687 279.322 251.795 282.244C252.718 284.902 253.357 287.649 253.701 290.441C253.701 290.441 253.321 283.77 254.467 279.96C255.613 276.149 258.847 271.383 258.847 271.383C258.847 271.383 259.036 279.763 257.708 284.339C256.379 288.916 255.796 291.011 255.796 291.011C256.632 288.634 258.003 286.482 259.803 284.719C262.657 282.055 269.518 279.763 269.518 279.763C269.518 279.763 266.277 285.675 264.182 287.58C262.087 289.485 259.992 291.58 259.992 291.58C261.868 290.391 264.058 289.794 266.277 289.865C270.284 289.865 275.044 292.536 275.044 292.536C275.044 292.536 261.138 292.347 258.467 294.631L249.144 294.252Z" fill="#0187FF" stroke="#263238" stroke-miterlimit="10"/>
<path d="M251.728 293.221L249.382 291.601" stroke="#263238" stroke-linecap="round" stroke-linejoin="round"/>
<path d="M254.256 294.489L251.009 285.817" stroke="#263238" stroke-linecap="round" stroke-linejoin="round"/>
<path d="M253.897 295.573L256.067 282.929" stroke="#263238" stroke-linecap="round" stroke-linejoin="round"/>
<path d="M254.256 294.489L260.399 286.902" stroke="#263238" stroke-linecap="round" stroke-linejoin="round"/>
<path d="M253.057 293.71L262.027 291.418" stroke="#263238" stroke-linecap="round" stroke-linejoin="round"/>
<path d="M265.132 324.029H246.114L245.253 317.12C244.627 312.077 244.597 306.977 245.165 301.926L246.114 293.485H265.166L266.101 301.743C266.679 306.788 266.656 311.884 266.034 316.924L265.132 324.029Z" fill="#263238"/>
<path d="M266.393 311.052L263.539 293.709L259.721 323.629L253.057 293.709L249.05 324.016L246.08 293.485" fill="#263238"/>
<path d="M266.393 311.052L263.539 293.709L259.721 323.629L253.057 293.709L249.05 324.016L246.08 293.485" stroke="white" stroke-linecap="round" stroke-linejoin="round"/>
<path d="M265.132 324.029H246.114L245.253 317.12C244.627 312.077 244.597 306.977 245.165 301.926L246.114 293.485H265.166L266.101 301.743C266.679 306.788 266.656 311.884 266.034 316.924L265.132 324.029Z" stroke="#263238" stroke-miterlimit="10"/>
<path d="M89.808 206.451C103.475 206.451 114.555 195.371 114.555 181.704C114.555 168.037 103.475 156.957 89.808 156.957C76.1406 156.957 65.061 168.037 65.061 181.704C65.061 195.371 76.1406 206.451 89.808 206.451Z" stroke="#B2B2B2" stroke-miterlimit="10"/>
<path d="M89.8083 201.501C100.742 201.501 109.606 192.638 109.606 181.704C109.606 170.77 100.742 161.906 89.8083 161.906C78.8744 161.906 70.0107 170.77 70.0107 181.704C70.0107 192.638 78.8744 201.501 89.8083 201.501Z" stroke="#B2B2B2" stroke-miterlimit="10"/>
<path d="M86.7232 181.704C86.7218 182.315 86.9016 182.912 87.2398 183.42C87.5779 183.928 88.0592 184.324 88.6228 184.559C89.1864 184.794 89.8069 184.856 90.4057 184.737C91.0046 184.619 91.5549 184.326 91.987 183.895C92.4191 183.463 92.7136 182.914 92.8332 182.315C92.9527 181.717 92.892 181.096 92.6588 180.532C92.4255 179.968 92.0301 179.486 91.5226 179.146C91.0152 178.807 90.4185 178.626 89.808 178.626C88.9911 178.626 88.2074 178.95 87.6291 179.527C87.0508 180.104 86.7249 180.887 86.7232 181.704V181.704Z" stroke="#B2B2B2" stroke-miterlimit="10"/>
<path d="M89.8081 184.782V196.451" stroke="#B2B2B2" stroke-miterlimit="10"/>
<path d="M92.8862 181.704H100.134" stroke="#B2B2B2" stroke-miterlimit="10"/>
<path d="M296.286 324.03H8.15625" stroke="#263238" stroke-linecap="round" stroke-linejoin="round"/>
<path d="M140.787 236.622C140.787 236.622 138.976 249.029 140.787 251.362C142.597 253.694 146.733 255.498 152.679 257.308C158.625 259.118 162.503 255.233 168.185 261.701C173.866 268.169 178.531 284.706 181.629 289.879C184.728 295.052 188.355 303.066 189.162 309.039C189.969 315.012 187.352 318.341 182.178 319.121C177.005 319.901 167.94 307.229 166.93 305.419C165.92 303.608 160.95 297.642 160.95 297.642C160.95 297.642 158.103 318.585 158.103 319.616C158.103 320.647 158.36 324.009 158.36 324.009H83.9092C83.9092 324.009 89.5976 292.991 91.1434 282.129C92.6893 271.268 91.9231 264.034 98.1268 260.155C104.331 256.277 110.019 257.315 114.155 256.02C118.291 254.725 120.874 253.694 121.138 251.369C121.403 249.043 121.396 238.181 121.396 238.181L140.787 236.622Z" fill="#0187FF" stroke="#263238" stroke-linecap="round" stroke-linejoin="round"/>
<path d="M86.5941 311.799L52.5449 320.762L55.2366 324.044H94.0656" fill="#0187FF"/>
<path d="M86.5941 311.799L52.5449 320.762L55.2366 324.044H94.0656" stroke="#263238" stroke-linecap="round" stroke-linejoin="round"/>
<path d="M48.2058 317.338C46.7133 316.411 45.0413 315.811 43.3001 315.577C41.5588 315.344 39.7877 315.482 38.1036 315.982C32.5915 317.589 29.832 322.416 29.832 324.023H53.0332C52.7464 322.631 52.1679 321.316 51.3358 320.163C50.5037 319.011 49.437 318.048 48.2058 317.338Z" fill="#808080" stroke="#263238" stroke-linecap="round" stroke-linejoin="round"/>
<path d="M33.9676 311.826C33.9676 311.826 30.9776 316.192 30.9776 317.799C30.9776 319.406 29.3708 321.013 31.6556 321.705C33.9405 322.396 35.3304 314.355 35.3304 313.44C35.3304 312.524 33.9676 311.826 33.9676 311.826Z" fill="white" stroke="#263238" stroke-linecap="round" stroke-linejoin="round"/>
<path d="M38.1035 311.602C38.1035 311.602 34.883 310.924 33.9677 311.826C33.0524 312.727 31.4387 320.789 31.6692 321.704C31.8998 322.619 34.1982 322.85 34.883 321.935C35.5677 321.019 38.1035 311.602 38.1035 311.602Z" fill="white" stroke="#263238" stroke-linecap="round" stroke-linejoin="round"/>
<path d="M61.5353 318.524L56.1113 317.907C55.8046 317.54 55.4691 317.198 55.1078 316.884C54.0843 316.247 53.0039 315.707 51.8805 315.27C51.8805 315.27 42.2326 311.819 40.1647 310.443C38.0968 309.066 36.951 311.799 36.2662 313.433C35.5814 315.067 33.9678 320.782 33.9678 322.389C33.9678 323.996 36.4899 324.681 36.951 322.843C37.412 321.006 41.0868 315.039 41.0868 315.039L45.9074 316.877C45.9074 316.877 46.3684 317.555 44.3005 318.945C42.2326 320.335 39.2494 323.304 40.1647 323.765C41.08 324.226 43.8395 323.996 44.7615 323.087C45.6836 322.179 50.5042 321.053 50.5042 321.053C50.5042 321.053 54.8705 323.813 55.7858 324.043C56.3783 324.13 56.9771 324.166 57.5757 324.152H63.176C63.416 323.152 63.3909 322.107 63.1031 321.12C62.8154 320.133 62.2749 319.238 61.5353 318.524Z" fill="white" stroke="#263238" stroke-linecap="round" stroke-linejoin="round"/>
<path d="M44.8901 318.524C44.8901 318.524 46.9241 316.206 48.5717 315.928" stroke="#263238" stroke-linecap="round" stroke-linejoin="round"/>
<path d="M178.314 299.751C180.769 300.548 183.175 301.488 185.521 302.565C188.864 304.144 190.098 307.989 189.589 312.769C189.081 317.548 185.718 321.216 180.775 319.806C175.832 318.396 173.209 314.382 173.032 311.182C172.856 307.982 171.425 300.802 178.314 299.751Z" fill="white" stroke="#263238" stroke-linecap="round" stroke-linejoin="round"/>
<path d="M126.047 272.326C114.412 271.912 106.866 264.746 102.357 258.183C106.893 256.664 110.982 257.03 114.155 256.04C118.29 254.745 120.874 253.715 121.138 251.389C121.402 249.064 121.396 238.202 121.396 238.202L140.786 236.649C140.786 236.649 138.976 249.057 140.786 251.389C142.597 253.721 146.733 255.525 152.679 257.335C155.282 258.122 157.486 257.823 159.628 257.783C156.136 261.593 144.149 272.97 126.047 272.326Z" fill="white" stroke="#263238" stroke-linecap="round" stroke-linejoin="round"/>
<path d="M121.362 245.972C122.821 247.382 124.436 248.622 126.176 249.667C129.281 251.416 134.596 249.864 136.149 247.925C136.908 246.975 138.475 245.104 140.149 242.853C140.387 239.578 140.827 236.649 140.827 236.649L121.436 238.202C121.436 238.202 121.396 242.277 121.362 245.972Z" fill="#263238" stroke="#263238" stroke-linecap="round" stroke-linejoin="round"/>
<path d="M180.579 277.051C180.579 277.051 170.022 290.95 168.964 296.76C167.907 302.571 164.564 316.626 164.564 316.626C164.564 316.626 154.36 321.026 147.851 321.202C141.343 321.379 130.081 320.321 130.081 320.321C130.081 320.321 137.295 301.71 140.109 292.36C142.922 283.011 143.627 277.756 143.627 277.756C143.627 277.756 159.642 279.865 168.788 277.756L182.511 274.59L180.579 277.051Z" fill="white" stroke="#263238" stroke-linecap="round" stroke-linejoin="round"/>
<path d="M180.077 306.192C180.077 306.192 178.789 289.92 177.236 289.391C175.683 288.862 166.388 287.581 163.791 288.096C161.194 288.612 160.401 289.649 162.503 290.164C164.605 290.68 168.185 291.202 169.737 291.459C171.49 291.876 173.218 292.394 174.91 293.012C174.91 293.012 169.222 293.785 166.896 293.785C164.571 293.785 159.14 296.11 158.882 297.175C158.73 297.789 158.822 298.438 159.14 298.985C159.003 299.519 159.018 300.079 159.181 300.605C159.438 301.643 165.601 301.128 167.154 301.385C168.707 301.643 171.805 302.389 171.805 302.389C171.805 302.389 162.761 301.873 162.761 303.684C162.761 305.494 166.632 305.229 168.185 305.229C170.065 305.437 171.853 306.152 173.358 307.297C174.131 308.077 173.873 312.131 176.199 312.911C177.196 313.303 178.24 313.562 179.304 313.684" fill="white"/>
<path d="M180.077 306.192C180.077 306.192 178.789 289.92 177.236 289.391C175.683 288.862 166.388 287.581 163.791 288.096C161.194 288.612 160.401 289.649 162.503 290.164C164.605 290.68 168.185 291.202 169.737 291.459C171.49 291.876 173.218 292.394 174.91 293.012C174.91 293.012 169.222 293.785 166.896 293.785C164.571 293.785 159.14 296.11 158.882 297.175C158.73 297.789 158.822 298.438 159.14 298.985C159.003 299.519 159.018 300.079 159.181 300.605C159.438 301.643 165.601 301.128 167.154 301.385C168.707 301.643 171.805 302.389 171.805 302.389C171.805 302.389 162.761 301.873 162.761 303.684C162.761 305.494 166.632 305.229 168.185 305.229C170.065 305.437 171.853 306.152 173.358 307.297C174.131 308.077 173.873 312.131 176.199 312.911C177.196 313.303 178.24 313.562 179.304 313.684" stroke="#263238" stroke-linecap="round" stroke-linejoin="round"/>
<path d="M159.14 298.957C159.14 298.957 169.48 296.625 174.653 299.215" stroke="#263238" stroke-linecap="round" stroke-linejoin="round"/>
<path d="M103.056 284.998C103.056 284.998 98.9202 299.473 99.6999 304.66C100.48 309.847 102.798 315.772 103.056 316.552C103.314 317.332 102.147 323.461 102.147 323.461" stroke="#263238" stroke-linecap="round" stroke-linejoin="round"/>
<path d="M94.5336 204.851C96.8592 202.526 94.5336 201.231 94.7913 198.648C95.0489 196.064 97.6321 194.769 98.9271 194.254C100.222 193.739 99.7 192.444 99.9644 189.596C100.229 186.749 103.321 185.718 105.388 184.945C107.456 184.172 106.168 182.911 107.199 180.809C108.229 178.708 113.924 179.257 113.924 179.257C113.924 179.257 115.213 176.931 116.765 176.931C118.318 176.931 119.348 178.999 121.416 177.189C123.484 175.379 125.294 174.606 128.142 175.636C129.062 176.002 130.007 176.301 130.969 176.531C131.935 176.302 132.882 176.003 133.803 175.636C136.644 174.606 138.454 175.379 140.522 177.189C142.59 178.999 143.628 176.931 145.18 176.931C146.733 176.931 148.021 179.257 148.021 179.257C148.021 179.257 153.709 178.741 154.747 180.809C155.784 182.877 154.482 184.165 156.55 184.945C158.618 185.725 161.723 186.755 161.974 189.596C162.225 192.437 161.717 193.732 163.012 194.254C164.307 194.776 166.89 196.058 167.147 198.648C167.405 201.237 165.113 202.526 167.405 204.851C169.697 207.177 172.056 208.987 169.988 210.54C167.92 212.092 165.852 212.608 166.11 214.933C166.368 217.259 168.958 220.106 166.89 221.394C164.822 222.683 162.754 222.689 162.754 225.015C162.754 227.34 163.527 230.703 161.201 231.219C158.876 231.734 155.513 231.219 155.513 232.771C155.513 234.324 155.255 237.165 151.635 236.649C148.014 236.134 146.726 235.097 145.946 237.165C145.167 239.233 143.363 240.555 141.295 240.27C139.227 239.985 136.38 239.755 134.57 241.301C133.677 241.995 132.614 242.436 131.491 242.575V242.663C131.315 242.663 131.139 242.663 130.963 242.663C130.786 242.663 130.61 242.663 130.434 242.663V242.575C129.312 242.433 128.249 241.993 127.356 241.301C125.545 239.755 122.705 240.012 120.637 240.27C118.569 240.528 116.758 239.233 115.986 237.165C115.213 235.097 113.918 236.134 110.297 236.649C106.677 237.165 106.419 234.324 106.419 232.771C106.419 231.219 103.029 231.741 100.731 231.219C98.4321 230.697 99.1779 227.34 99.1779 225.015C99.1779 222.689 97.1439 222.689 95.0421 221.394C92.9403 220.099 95.5574 217.259 95.8151 214.933C96.0727 212.608 94.0048 212.092 91.9369 210.54C89.869 208.987 92.2081 207.177 94.5336 204.851Z" fill="#263238" stroke="#263238" stroke-linecap="round" stroke-linejoin="round"/>
<path d="M115.26 219.136C115.26 219.136 112.318 214.723 110.548 216.784C108.778 218.845 109.375 224.14 111.728 226.791C114.08 229.442 116.725 228.554 116.725 228.554" fill="white"/>
<path d="M115.26 219.136C115.26 219.136 112.318 214.723 110.548 216.784C108.778 218.845 109.375 224.14 111.728 226.791C114.08 229.442 116.725 228.554 116.725 228.554" stroke="#263238" stroke-linecap="round" stroke-linejoin="round"/>
<path d="M146.726 218.913C146.726 218.913 150.163 214.845 151.675 217.123C153.187 219.401 151.98 224.581 149.336 226.92C146.692 229.259 144.163 228.093 144.163 228.093" fill="white"/>
<path d="M146.726 218.913C146.726 218.913 150.163 214.845 151.675 217.123C153.187 219.401 151.98 224.581 149.336 226.92C146.692 229.259 144.163 228.093 144.163 228.093" stroke="#263238" stroke-linecap="round" stroke-linejoin="round"/>
<path d="M145.499 208.471C144.98 208.942 144.363 209.291 143.691 209.492C143.02 209.692 142.313 209.74 141.621 209.631C140.339 209.445 139.096 209.053 137.939 208.471C137.939 208.471 135.614 210.024 133.871 209.441C132.129 208.858 130.183 208.275 130.183 208.275C128.908 209.057 127.387 209.335 125.918 209.054C123.206 208.661 122.426 208.085 122.426 208.085C122.426 208.085 120.874 209.441 119.328 209.441C118.355 209.438 117.384 209.372 116.419 209.244C115.995 209.455 115.535 209.586 115.063 209.631H113.707C113.707 209.631 113.131 221.265 115.063 229.605C116.996 237.944 124.555 244.148 127.667 245.877C130.779 247.606 136.095 246.073 137.648 244.134C139.2 242.195 144.15 236.378 146.462 231.334C148.774 226.289 149.567 211.556 149.567 210.587C149.567 209.617 146.448 210.797 145.499 208.471Z" fill="white" stroke="#263238" stroke-linecap="round" stroke-linejoin="round"/>
<path d="M134.556 215.258C134.292 215.371 134.068 215.56 133.915 215.802C133.761 216.045 133.684 216.328 133.695 216.614C133.763 218.811 134.088 224.032 135.614 224.947C137.553 226.106 146.604 226.981 148.801 225.523C149.96 224.75 152.482 217.963 151.513 216.031C150.543 214.099 142.312 212.072 134.556 215.258Z" stroke="#263238" stroke-linecap="round" stroke-linejoin="round"/>
<path d="M128.569 215.258C128.833 215.371 129.057 215.56 129.21 215.802C129.364 216.045 129.441 216.328 129.43 216.614C129.362 218.811 129.037 224.032 127.511 224.947C125.572 226.106 116.521 226.981 114.324 225.523C113.165 224.75 110.643 217.963 111.612 216.031C112.582 214.099 120.813 212.072 128.569 215.258Z" stroke="#263238" stroke-linecap="round" stroke-linejoin="round"/>
<path d="M134.556 215.258C134.556 215.258 130.962 214.478 128.63 215.645" stroke="#263238" stroke-linecap="round" stroke-linejoin="round"/>
<path d="M133.288 217.584H129.6" stroke="#263238" stroke-linecap="round" stroke-linejoin="round"/>
<path d="M139.105 222.629C139.749 222.629 140.271 221.673 140.271 220.493C140.271 219.314 139.749 218.357 139.105 218.357C138.461 218.357 137.939 219.314 137.939 220.493C137.939 221.673 138.461 222.629 139.105 222.629Z" fill="#263238"/>
<path d="M125.918 222.629C126.562 222.629 127.084 221.673 127.084 220.493C127.084 219.314 126.562 218.357 125.918 218.357C125.274 218.357 124.752 219.314 124.752 220.493C124.752 221.673 125.274 222.629 125.918 222.629Z" fill="#263238"/>
<path d="M132.888 221.849C132.888 221.849 132.691 224.561 133.661 225.53C134.63 226.5 135.789 227.279 134.433 228.242C133.077 229.205 131.918 229.985 129.979 228.242" stroke="#263238" stroke-linecap="round" stroke-linejoin="round"/>
<path d="M136.386 232.317C136.386 232.317 131.539 234.649 127.274 231.544" stroke="#263238" stroke-linecap="round" stroke-linejoin="round"/>
<path d="M142.787 216.228C142.02 215.655 141.122 215.283 140.174 215.147C139.227 215.011 138.26 215.115 137.363 215.449" stroke="#263238" stroke-linecap="round" stroke-linejoin="round"/>
<path d="M126.888 216.031C126.888 216.031 122.426 213.706 119.904 217.387" stroke="#263238" stroke-linecap="round" stroke-linejoin="round"/>
<path d="M142.983 253.063L127.857 290.292L118.935 254.616" stroke="#263238" stroke-linecap="round" stroke-linejoin="round"/>
<path d="M125.918 292.042C125.918 292.464 126.043 292.877 126.278 293.228C126.513 293.58 126.846 293.853 127.236 294.015C127.627 294.177 128.056 294.219 128.47 294.137C128.885 294.054 129.265 293.851 129.564 293.552C129.863 293.253 130.066 292.873 130.148 292.459C130.231 292.044 130.188 291.615 130.027 291.225C129.865 290.834 129.591 290.501 129.24 290.266C128.889 290.032 128.476 289.906 128.054 289.906C127.487 289.906 126.944 290.131 126.543 290.532C126.143 290.932 125.918 291.476 125.918 292.042Z" fill="#263238" stroke="#263238" stroke-linecap="round" stroke-linejoin="round"/>
<path d="M79.8615 324.037H138.292V322.227H79.8615V324.037Z" fill="#808080" stroke="#263238" stroke-linecap="round" stroke-linejoin="round"/>
<path d="M37.2085 284.218H95.8894L107.782 324.03H49.1006L37.2085 284.218Z" fill="#808080" stroke="#263238" stroke-linecap="round" stroke-linejoin="round"/>
</svg>
