<svg width="402" height="268" fill="none" xmlns="http://www.w3.org/2000/svg"><g opacity=".1"><path d="M328.047 233.92H103.439v33.088h224.608V233.92z" fill="#fff"/><path d="M215.532 264.69c55.531-.311 100.515-6.616 100.473-14.084-.042-7.467-45.093-13.269-100.624-12.958-55.532.31-100.515 6.615-100.474 14.083.042 7.467 45.093 13.269 100.625 12.959z" fill="#fff"/><path d="M215.187 264.64c55.313-.309 100.12-6.59 100.078-14.03-.041-7.439-44.915-13.219-100.228-12.909-55.313.309-100.12 6.59-100.078 14.03.041 7.439 44.915 13.219 100.228 12.909z" fill="#fff"/><path d="M214.842 264.579c55.095-.309 99.724-6.561 99.683-13.964-.041-7.404-44.738-13.157-99.832-12.849-55.095.309-99.724 6.56-99.683 13.964.041 7.404 44.738 13.157 99.832 12.849z" fill="#fff"/><path d="M214.497 264.529c54.883-.307 99.342-6.535 99.3-13.91-.041-7.376-44.566-13.107-99.449-12.8-54.883.307-99.341 6.535-99.3 13.911.041 7.376 44.566 13.106 99.449 12.799z" fill="#fff"/><path d="M214.152 264.48c54.665-.306 98.946-6.51 98.905-13.857-.041-7.348-44.388-13.056-99.053-12.751-54.665.306-98.946 6.51-98.905 13.858.041 7.347 44.389 13.056 99.053 12.75z" fill="#fff"/><path d="M214.977 263.492c54.447-.545 98.525-6.92 98.452-14.24-.073-7.319-44.27-12.811-98.717-12.265-54.447.545-98.526 6.92-98.453 14.24.073 7.319 44.271 12.811 98.718 12.265z" fill="#FEFFFF"/><path d="M213.463 264.382c54.228-.304 98.155-6.46 98.114-13.751-.04-7.291-44.034-12.956-98.261-12.652-54.228.303-98.155 6.459-98.114 13.75.04 7.291 44.033 12.956 98.261 12.653z" fill="#FEFFFF"/><path d="M213.118 264.333c54.009-.303 97.759-6.435 97.719-13.698-.041-7.263-43.856-12.905-97.866-12.603-54.009.302-97.759 6.434-97.718 13.697.04 7.263 43.856 12.906 97.865 12.604z" fill="#FEFEFF"/><path d="M212.773 264.283c53.791-.301 97.364-6.409 97.324-13.644-.041-7.234-43.679-12.855-97.47-12.554-53.791.301-97.364 6.409-97.323 13.644.04 7.234 43.679 12.855 97.469 12.554z" fill="#FEFEFF"/><path d="M212.428 264.221c53.572-.299 96.969-6.378 96.928-13.578-.04-7.199-43.501-12.792-97.073-12.492-53.572.299-96.969 6.378-96.929 13.577.041 7.2 43.502 12.793 97.074 12.493z" fill="#FEFEFF"/><path d="M212.084 264.172c53.353-.298 96.573-6.353 96.533-13.524-.04-7.171-43.324-12.743-96.678-12.444-53.354.298-96.573 6.353-96.533 13.524.04 7.171 43.324 12.743 96.678 12.444z" fill="#FDFEFF"/><path d="M211.738 264.123c53.135-.297 96.178-6.329 96.138-13.471-.04-7.143-43.147-12.693-96.282-12.395-53.135.297-96.177 6.328-96.138 13.471.04 7.143 43.147 12.692 96.282 12.395z" fill="#FDFEFE"/><path d="M211.394 264.061c52.917-.296 95.782-6.303 95.742-13.418-.039-7.115-42.969-12.642-95.886-12.346-52.917.296-95.782 6.303-95.742 13.418.04 7.114 42.969 12.642 95.886 12.346z" fill="#FDFEFE"/><path d="M212.216 263.086c52.706-.528 95.375-6.701 95.305-13.787-.071-7.087-42.855-12.404-95.561-11.876-52.706.528-95.376 6.701-95.305 13.787.071 7.086 42.855 12.403 95.561 11.876z" fill="#FDFEFE"/><path d="M210.704 263.975c52.487-.293 95.004-6.253 94.965-13.311-.04-7.058-42.621-12.542-95.107-12.248-52.487.293-95.004 6.253-94.965 13.311.04 7.058 42.62 12.542 95.107 12.248z" fill="#FCFDFE"/><path d="M210.359 263.926c52.268-.292 94.609-6.228 94.569-13.258-.039-7.03-42.442-12.492-94.711-12.199-52.268.292-94.608 6.228-94.569 13.258.039 7.03 42.443 12.492 94.711 12.199z" fill="#FCFDFE"/><path d="M210.014 263.864c52.05-.291 94.213-6.197 94.174-13.192-.039-6.994-42.265-12.428-94.315-12.137-52.05.291-94.213 6.197-94.174 13.192.039 6.994 42.265 12.428 94.315 12.137z" fill="#FCFDFE"/><path d="M209.669 263.815c51.832-.29 93.818-6.172 93.779-13.139-.039-6.966-42.088-12.378-93.919-12.088-51.832.29-93.818 6.172-93.779 13.138.039 6.967 42.088 12.379 93.919 12.089z" fill="#FBFDFE"/><path d="M302.728 250.662c0 6.94-41.769 12.78-93.378 13.087-51.609.307-93.493-5.112-93.531-12.039-.038-6.927 41.769-12.78 93.391-13.087 51.621-.306 93.48 5.099 93.518 12.039z" fill="#FBFDFE"/><path d="M208.979 263.704c51.395-.288 93.027-6.122 92.988-13.032-.038-6.91-41.733-12.278-93.127-11.991-51.394.287-93.027 6.122-92.988 13.032.039 6.91 41.733 12.278 93.127 11.991z" fill="#FBFCFE"/><path d="M208.635 263.655c51.176-.287 92.631-6.097 92.593-12.979-.039-6.882-41.556-12.228-92.732-11.942-51.176.286-92.631 6.097-92.593 12.979.039 6.881 41.556 12.228 92.732 11.942z" fill="#FAFCFE"/><path d="M208.29 263.618c50.957-.285 92.235-6.072 92.197-12.925-.038-6.853-41.378-12.178-92.336-11.893-50.957.285-92.235 6.072-92.197 12.925.038 6.854 41.378 12.178 92.336 11.893z" fill="#FAFCFD"/><path d="M207.945 263.569c50.739-.284 91.84-6.047 91.802-12.872-.038-6.825-41.201-12.128-91.94-11.844-50.739.284-91.84 6.047-91.802 12.872.039 6.825 41.201 12.128 91.94 11.844z" fill="#FAFCFD"/><path d="M207.6 263.507c50.528-.282 91.457-6.016 91.42-12.806-.038-6.79-41.03-12.065-91.557-11.782-50.527.282-91.457 6.016-91.419 12.806.038 6.79 41.029 12.065 91.556 11.782z" fill="#F9FCFD"/><path d="M207.255 263.458c50.309-.281 91.062-5.991 91.024-12.753-.037-6.761-40.851-12.015-91.16-11.733-50.309.281-91.062 5.991-91.024 12.752.037 6.762 40.851 12.015 91.16 11.734z" fill="#F9FBFD"/><path d="M206.911 263.409c50.09-.28 90.666-5.966 90.629-12.7-.038-6.733-40.675-11.964-90.765-11.684-50.091.28-90.666 5.966-90.629 12.699.038 6.733 40.674 11.965 90.765 11.685z" fill="#F8FBFD"/><path d="M207.73 262.44c49.872-.499 90.248-6.34 90.181-13.045-.067-6.705-40.551-11.736-90.424-11.237-49.873.5-90.248 6.34-90.181 13.046.067 6.705 40.551 11.736 90.424 11.236z" fill="#F8FBFD"/><path d="M206.234 263.298c49.653-.278 89.875-5.916 89.838-12.593-.037-6.677-40.32-11.865-89.973-11.587-49.654.278-89.875 5.916-89.838 12.593.037 6.677 40.319 11.864 89.973 11.587z" fill="#F8FAFD"/><path d="M295.352 250.7c0 6.646-39.996 12.256-89.435 12.538-49.439.281-89.537-4.882-89.575-11.502-.038-6.62 40.008-12.256 89.435-12.538 49.426-.281 89.575 4.895 89.575 11.502z" fill="#F7FAFC"/><path d="M205.544 263.199c49.216-.275 89.084-5.86 89.047-12.473-.037-6.613-39.964-11.752-89.181-11.476-49.216.275-89.084 5.859-89.047 12.473.037 6.613 39.964 11.751 89.181 11.476z" fill="#F7FAFC"/><path d="M205.199 263.15c48.998-.274 88.689-5.835 88.652-12.42-.037-6.585-39.787-11.701-88.785-11.427-48.998.274-88.689 5.834-88.652 12.42.036 6.585 39.787 11.701 88.785 11.427z" fill="#F6FAFC"/><path d="M293.131 250.713c0 6.556-39.485 12.103-88.261 12.371-48.775.269-88.362-4.818-88.401-11.374-.038-6.556 39.485-12.103 88.261-12.371 48.776-.268 88.363 4.818 88.401 11.374z" fill="#F6F9FC"/><path d="M204.51 263.039c48.561-.272 87.897-5.785 87.861-12.313-.036-6.529-39.432-11.602-87.993-11.33-48.561.272-87.898 5.784-87.862 12.313.037 6.529 39.433 11.601 87.994 11.33z" fill="#F5F9FC"/><path d="M204.165 262.99c48.349-.271 87.515-5.76 87.479-12.26-.037-6.501-39.261-11.551-87.611-11.281-48.349.271-87.515 5.759-87.479 12.26.037 6.501 39.261 11.551 87.611 11.281z" fill="#F5F9FC"/><path d="M203.819 262.94c48.131-.269 87.12-5.734 87.084-12.206-.036-6.472-39.083-11.501-87.214-11.232-48.131.269-87.12 5.734-87.084 12.207.036 6.472 39.083 11.501 87.214 11.231z" fill="#F4F9FC"/><path d="M203.475 262.891c47.912-.268 86.724-5.709 86.688-12.153-.036-6.444-38.906-11.451-86.818-11.183-47.913.268-86.725 5.709-86.689 12.153.036 6.444 38.906 11.451 86.819 11.183z" fill="#F4F8FB"/><path d="M203.13 262.842c47.694-.267 86.329-5.678 86.293-12.087-.036-6.409-38.729-11.388-86.423-11.121-47.694.267-86.328 5.678-86.293 12.087.036 6.409 38.729 11.388 86.423 11.121z" fill="#F3F8FB"/><path d="M202.785 262.793c47.476-.266 85.934-5.653 85.898-12.034-.035-6.38-38.551-11.338-86.026-11.072-47.476.265-85.934 5.653-85.898 12.034.035 6.38 38.551 11.337 86.026 11.072z" fill="#F3F8FB"/><path d="M202.44 262.744c47.257-.265 85.538-5.629 85.502-11.981-.035-6.352-38.373-11.287-85.63-11.023-47.257.264-85.538 5.628-85.503 11.98.036 6.353 38.374 11.288 85.631 11.024z" fill="#F2F7FB"/><path d="M202.096 262.682c47.038-.263 85.142-5.603 85.107-11.927-.036-6.325-38.197-11.238-85.235-10.975-47.039.263-85.143 5.603-85.107 11.927.035 6.324 38.196 11.238 85.235 10.975z" fill="#F2F7FB"/><path d="M286.482 250.752c0 6.287-37.89 11.604-84.713 11.872-46.823.269-84.815-4.626-84.84-10.863-.026-6.237 37.89-11.617 84.713-11.885 46.823-.269 84.776 4.575 84.84 10.876z" fill="#F1F7FB"/><path d="M201.406 262.583c46.601-.26 84.351-5.553 84.316-11.82-.035-6.268-37.841-11.137-84.443-10.877-46.601.261-84.351 5.553-84.316 11.821.035 6.267 37.841 11.137 84.443 10.876z" fill="#F1F6FA"/><path d="M202.221 261.652c46.384-.465 83.935-5.899 83.873-12.139-.062-6.239-37.714-10.921-84.098-10.456-46.384.464-83.935 5.899-83.873 12.138.062 6.24 37.714 10.921 84.098 10.457z" fill="#F0F6FA"/><path d="M284.262 250.764c0 6.199-37.354 11.502-83.526 11.707-46.172.204-83.628-4.563-83.667-10.71-.038-6.147 37.367-11.502 83.539-11.719 46.172-.217 83.628 4.511 83.654 10.722z" fill="#F0F6FA"/><path d="M283.522 250.764c0 6.173-37.188 11.4-83.131 11.656-45.942.255-83.232-4.537-83.27-10.659-.039-6.122 37.188-11.4 83.143-11.668 45.955-.268 83.232 4.499 83.258 10.671z" fill="#EFF5FA"/><path d="M282.794 250.764c0 6.147-37.01 11.349-82.748 11.605-45.738.255-82.837-4.512-82.875-10.608-.038-6.096 37.009-11.336 82.748-11.591 45.738-.256 82.836 4.447 82.875 10.594z" fill="#EEF5FA"/><path d="M282.054 250.777c0 6.109-36.844 11.285-82.352 11.502-45.509.217-82.442-4.498-82.48-10.62-.038-6.122 36.831-11.285 82.352-11.502 45.522-.217 82.441 4.498 82.48 10.62z" fill="#EEF5FA"/><path d="M199.337 262.275c45.297-.253 81.991-5.396 81.957-11.487-.034-6.092-36.783-10.824-82.08-10.571-45.298.254-81.992 5.397-81.958 11.488.034 6.091 36.783 10.824 82.081 10.57z" fill="#EDF4F9"/><path d="M280.574 250.777c0 6.058-36.486 11.183-81.561 11.502-45.075.32-81.676-4.447-81.676-10.518 0-6.07 36.486-11.17 81.561-11.425 45.075-.256 81.637 4.383 81.676 10.441z" fill="#EDF4F9"/><path d="M198.647 262.177c44.861-.251 81.2-5.346 81.167-11.381-.034-6.035-36.428-10.723-81.289-10.473-44.861.251-81.2 5.347-81.167 11.381.034 6.035 36.428 10.724 81.289 10.473z" fill="#ECF3F9"/><path d="M198.302 262.128c44.643-.25 80.805-5.316 80.772-11.315-.034-6-36.251-10.661-80.893-10.411s-80.805 5.316-80.771 11.315c.033 5.999 36.25 10.66 80.892 10.411z" fill="#EBF3F9"/><path d="M278.353 250.79c0 5.968-35.95 11.016-80.4 11.272-44.449.255-80.45-4.384-80.475-10.301-.026-5.917 35.95-11.016 80.399-11.272 44.449-.255 80.45 4.333 80.476 10.301z" fill="#EBF3F9"/><path d="M277.613 250.79c0 5.955-35.733 10.965-79.978 11.221-44.246.255-80.081-4.371-80.106-10.25-.026-5.879 35.733-10.965 79.978-11.208 44.245-.243 80.08 4.294 80.106 10.237z" fill="#EAF2F8"/><path d="M197.268 261.967c43.994-.246 79.631-5.24 79.598-11.155-.033-5.914-35.724-10.51-79.718-10.264-43.994.246-79.631 5.241-79.598 11.155.033 5.915 35.724 10.51 79.718 10.264z" fill="#EAF2F8"/><path d="M196.923 261.918c43.775-.245 79.235-5.215 79.203-11.101-.033-5.887-35.547-10.46-79.322-10.216-43.776.245-79.236 5.216-79.203 11.102.033 5.887 35.546 10.46 79.322 10.215z" fill="#E9F2F8"/><path d="M275.405 250.803c0 5.866-35.248 10.812-78.804 11.054-43.556.243-78.894-4.307-78.932-10.224-.038-5.917 35.248-10.799 78.804-11.042 43.556-.242 78.894 4.358 78.932 10.212z" fill="#E8F1F8"/><path d="M274.665 250.815c0 5.828-35.069 10.748-78.409 10.991-43.339.243-78.497-4.281-78.536-10.045-.038-5.764 35.082-10.748 78.409-10.991 43.326-.243 78.498 4.218 78.536 10.045z" fill="#E8F1F7"/><path d="M195.888 261.771c43.12-.242 78.049-5.135 78.017-10.929-.032-5.795-35.014-10.297-78.134-10.056-43.12.241-78.049 5.134-78.017 10.929.032 5.795 35.014 10.297 78.134 10.056z" fill="#E7F0F7"/><path d="M195.543 261.709c42.902-.24 77.654-5.109 77.622-10.876-.032-5.766-34.837-10.247-77.738-10.007-42.901.24-77.654 5.11-77.622 10.876.032 5.766 34.837 10.247 77.738 10.007z" fill="#E6F0F7"/><path d="M196.355 260.803c42.683-.427 77.239-5.426 77.182-11.164-.058-5.738-34.706-10.044-77.39-9.616-42.683.427-77.239 5.426-77.181 11.164.057 5.738 34.705 10.044 77.389 9.616z" fill="#E6EFF7"/><path d="M194.854 261.61c42.464-.237 76.862-5.059 76.831-10.769-.032-5.71-34.482-10.146-76.947-9.908-42.464.237-76.863 5.058-76.831 10.768.032 5.71 34.482 10.147 76.947 9.909z" fill="#E5EFF7"/><path d="M194.509 261.561c42.246-.236 76.467-5.034 76.435-10.716-.031-5.681-34.304-10.096-76.55-9.859-42.246.236-76.467 5.033-76.436 10.715.032 5.682 34.305 10.096 76.551 9.86z" fill="#E4EFF6"/><path d="M194.164 261.512c42.027-.235 76.072-5.009 76.04-10.662-.031-5.654-34.127-10.046-76.154-9.811-42.028.235-76.072 5.008-76.041 10.662.032 5.653 34.127 10.046 76.155 9.811z" fill="#E4EEF6"/><path d="M269.496 250.841c0 5.623-33.844 10.365-75.652 10.607-41.808.243-75.741-4.128-75.767-9.687-.025-5.559 33.832-10.377 75.652-10.607 41.821-.23 75.729 4.064 75.767 9.687z" fill="#E3EEF6"/><path d="M268.756 250.841c0 5.598-33.666 10.313-75.295 10.556-41.629.243-75.294-4.115-75.371-9.7-.077-5.585 33.653-10.313 75.295-10.556 41.641-.243 75.333 4.115 75.371 9.7z" fill="#E2EDF6"/><path d="M193.129 261.352c41.38-.232 74.899-4.928 74.868-10.49-.031-5.562-33.601-9.883-74.98-9.651-41.379.231-74.898 4.927-74.867 10.489.031 5.562 33.6 9.883 74.979 9.652z" fill="#E1EDF6"/><path d="M267.276 250.854c0 5.533-33.309 10.224-74.466 10.441-41.156.217-74.554-4.064-74.58-9.534-.025-5.47 33.309-10.224 74.466-10.441 41.156-.217 74.58 4.051 74.58 9.534z" fill="#E1ECF5"/><path d="M266.536 250.854c0 5.508-33.181 10.224-74.019 10.39-40.838.166-74.21-4.051-74.248-9.483-.038-5.431 33.181-10.16 74.082-10.39 40.902-.23 74.159 4 74.185 9.483z" fill="#E0ECF5"/><path d="M265.795 250.854c0 5.482-32.951 10.109-73.674 10.339-40.723.23-73.763-4.026-73.801-9.496-.038-5.47 32.964-10.16 73.661-10.339 40.697-.179 73.789 4.013 73.814 9.496z" fill="#DFECF5"/><path d="M265.055 250.867c0 5.444-32.772 10.045-73.278 10.224-40.506.178-73.368-3.949-73.406-9.33-.038-5.38 32.785-10.045 73.291-10.224 40.506-.179 73.368 3.834 73.393 9.33z" fill="#DFEBF5"/><path d="M191.405 261.093c40.287-.226 72.921-4.797 72.891-10.21-.03-5.414-32.713-9.62-73-9.394-40.287.225-72.921 4.796-72.891 10.21.03 5.413 32.714 9.619 73 9.394z" fill="#DEEBF4"/><path d="M191.06 261.044c40.068-.225 72.526-4.772 72.496-10.157-.03-5.386-32.536-9.57-72.604-9.345-40.069.224-72.526 4.771-72.496 10.156.03 5.386 32.536 9.57 72.604 9.346z" fill="#DDEAF4"/><path d="M262.847 250.879c0 5.355-32.249 9.879-72.104 10.109-39.855.23-72.194-3.936-72.219-9.304-.026-5.367 32.249-9.879 72.104-10.109 39.855-.23 72.181 3.937 72.219 9.304z" fill="#DCEAF4"/><path d="M190.371 260.945c39.638-.222 71.747-4.721 71.717-10.05-.03-5.329-32.187-9.469-71.825-9.247-39.638.221-71.747 4.721-71.717 10.05.029 5.329 32.186 9.469 71.825 9.247z" fill="#DCE9F4"/><path d="M190.026 260.896c39.419-.22 71.351-4.696 71.322-9.997-.03-5.3-32.01-9.419-71.429-9.198-39.42.22-71.352 4.696-71.323 9.997.03 5.3 32.01 9.418 71.43 9.198z" fill="#DBE9F3"/><path d="M260.627 250.892c0 5.265-31.726 9.713-70.918 9.943-39.191.23-71.006-3.834-71.032-9.151-.025-5.316 31.726-9.712 70.918-9.942 39.191-.23 71.006 3.872 71.032 9.15z" fill="#DAE8F3"/><path d="M259.886 250.892c0 5.24-31.547 9.662-70.521 9.892-38.975.23-70.611-3.834-70.637-9.1-.025-5.265 31.547-9.661 70.522-9.879 38.974-.217 70.611 3.847 70.636 9.087z" fill="#D9E8F3"/><path d="M189.004 260.736c38.764-.217 70.165-4.616 70.136-9.824-.029-5.209-31.477-9.256-70.241-9.039-38.764.216-70.165 4.615-70.136 9.824.029 5.209 31.477 9.255 70.241 9.039z" fill="#D8E7F3"/><path d="M188.659 260.674c38.545-.216 69.769-4.59 69.741-9.771-.029-5.181-31.3-9.206-69.846-8.99-38.546.215-69.77 4.59-69.741 9.771.029 5.18 31.3 9.205 69.846 8.99z" fill="#D8E7F2"/><path d="M257.679 250.905c0 5.112-31.024 9.508-69.348 9.725-38.324.218-69.424-3.834-69.462-8.946-.039-5.112 31.024-9.508 69.347-9.725 38.324-.217 69.425 3.796 69.463 8.946z" fill="#D7E6F2"/><path d="M256.939 250.905c0 5.112-30.846 9.457-68.914 9.674-38.069.218-69.029-3.834-69.067-8.946-.038-5.112 30.845-9.444 68.914-9.661 38.068-.218 69.041 3.808 69.067 8.933z" fill="#D6E6F2"/><path d="M187.624 260.539c37.891-.212 68.584-4.515 68.555-9.611-.028-5.096-30.767-9.055-68.658-8.843-37.89.212-68.583 4.515-68.555 9.61.029 5.096 30.768 9.056 68.658 8.844z" fill="#D5E5F2"/><path d="M255.458 250.918c0 5.112-30.488 9.342-68.161 9.559-37.673.217-68.25-3.732-68.275-8.793-.026-5.06 30.487-9.342 68.173-9.559 37.686-.217 68.237 3.719 68.263 8.793z" fill="#D4E5F1"/><path d="M254.718 250.918c0 5.035-30.309 9.291-67.765 9.508-37.456.217-67.855-3.706-67.88-8.742-.026-5.035 30.309-9.291 67.778-9.495 37.468-.205 67.842 3.693 67.867 8.729z" fill="#D4E4F1"/><path d="M186.59 260.378c37.242-.208 67.41-4.433 67.382-9.438-.028-5.004-30.241-8.892-67.483-8.683-37.242.208-67.41 4.434-67.382 9.438.028 5.004 30.241 8.892 67.483 8.683z" fill="#D3E4F1"/><path d="M186.245 260.316c37.023-.207 67.014-4.408 66.987-9.384-.028-4.976-30.064-8.842-67.087-8.635-37.024.207-67.015 4.409-66.987 9.385.028 4.976 30.064 8.842 67.087 8.634z" fill="#D2E3F0"/><path d="M185.9 260.267c36.805-.206 66.619-4.383 66.591-9.331-.027-4.948-29.886-8.792-66.691-8.586-36.805.206-66.618 4.384-66.591 9.331.028 4.948 29.886 8.792 66.691 8.586z" fill="#D1E3F0"/><path d="M185.555 260.231c36.587-.205 66.224-4.359 66.196-9.278-.027-4.92-29.709-8.742-66.295-8.537-36.586.204-66.223 4.358-66.196 9.278.028 4.919 29.709 8.742 66.295 8.537z" fill="#D0E2F0"/><path d="M251.03 250.943c0 4.882-29.441 8.946-65.8 9.227-36.358.282-65.876-3.604-65.902-8.486-.025-4.882 29.429-9.022 65.8-9.227 36.371-.204 65.876 3.591 65.902 8.486z" fill="#CFE2F0"/><path d="M184.865 260.132c36.15-.202 65.433-4.308 65.406-9.171-.027-4.863-29.354-8.641-65.504-8.439-36.149.202-65.432 4.308-65.405 9.171.027 4.863 29.354 8.642 65.503 8.439z" fill="#CEE1EF"/><path d="M249.549 250.943c0 4.831-29.084 8.946-65.008 9.112-35.925.167-65.085-3.54-65.085-8.371 0-4.83 29.071-8.946 65.008-9.112 35.937-.166 65.06 3.54 65.085 8.371z" fill="#CEE1EF"/><path d="M184.176 260.009c35.712-.2 64.641-4.253 64.615-9.052-.027-4.8-28.999-8.529-64.712-8.329-35.712.2-64.641 4.252-64.615 9.052.027 4.799 29 8.528 64.712 8.329z" fill="#CDE0EF"/><path d="M183.831 259.959c35.501-.198 64.259-4.227 64.232-8.998-.026-4.772-28.827-8.479-64.328-8.28-35.501.199-64.259 4.227-64.232 8.999.026 4.771 28.827 8.478 64.328 8.279z" fill="#CCE0EF"/><path d="M183.486 259.91c35.283-.197 63.863-4.202 63.837-8.945-.026-4.743-28.65-8.428-63.933-8.231-35.282.197-63.863 4.202-63.836 8.945.026 4.743 28.65 8.428 63.932 8.231z" fill="#CBDFEE"/><path d="M183.142 259.874c35.064-.196 63.468-4.177 63.441-8.892-.026-4.715-28.472-8.378-63.536-8.182-35.064.196-63.468 4.177-63.442 8.892.027 4.715 28.473 8.378 63.537 8.182z" fill="#CADFEE"/><path d="M245.862 250.969c0 4.677-28.204 8.639-63.044 8.831-34.839.191-63.12-3.438-63.145-8.116-.026-4.677 28.203-8.652 63.043-8.843 34.84-.192 63.12 3.438 63.146 8.128z" fill="#C9DEEE"/><path d="M245.121 250.969c0 4.652-28.076 8.588-62.648 8.78-34.571.191-62.724-3.413-62.749-8.065-.026-4.651 28.076-8.588 62.647-8.792 34.572-.205 62.725 3.425 62.75 8.077z" fill="#C8DEED"/><path d="M182.107 259.713c34.409-.192 62.281-4.096 62.255-8.719-.025-4.623-27.94-8.215-62.348-8.022-34.409.192-62.282 4.096-62.256 8.719.026 4.623 27.94 8.215 62.349 8.022z" fill="#C7DDED"/><path d="M181.762 259.651c34.19-.191 61.886-4.071 61.86-8.665-.025-4.595-27.763-8.165-61.953-7.974-34.19.191-61.886 4.071-61.86 8.666.026 4.595 27.763 8.165 61.953 7.973z" fill="#C6DCED"/><path d="M242.901 250.982c0 4.562-27.489 8.422-61.461 8.613-33.972.192-61.538-3.348-61.563-7.923-.026-4.576 27.489-8.422 61.461-8.614 33.972-.192 61.537 3.361 61.563 7.924z" fill="#C6DCED"/><path d="M242.16 250.982c0 4.536-27.31 8.37-61.065 8.562-33.755.192-61.142-3.323-61.167-7.872-.026-4.55 27.31-8.371 61.065-8.563 33.755-.192 61.142 3.336 61.167 7.873z" fill="#C5DBEC"/><path d="M180.727 259.517c33.535-.188 60.7-3.996 60.675-8.506-.026-4.51-27.231-8.015-60.766-7.827-33.534.188-60.699 3.996-60.674 8.506.025 4.51 27.231 8.014 60.765 7.827z" fill="#C4DBEC"/><path d="M240.68 250.994c0 4.486-26.953 8.269-60.274 8.448-33.321.179-60.351-3.285-60.376-7.77-.026-4.486 26.966-8.256 60.274-8.448 33.308-.192 60.363 3.297 60.376 7.77z" fill="#C3DAEC"/><path d="M239.953 250.994c0 4.461-26.8 8.218-59.891 8.397-33.092.179-59.981-3.259-59.981-7.668 0-4.409 26.8-8.205 59.891-8.397 33.092-.191 59.955 3.221 59.981 7.668z" fill="#C2DAEB"/><path d="M180.839 258.556c32.887-.33 59.511-4.179 59.467-8.597-.044-4.418-26.74-7.733-59.627-7.404-32.886.329-59.51 4.178-59.466 8.597.044 4.418 26.74 7.733 59.626 7.404z" fill="#C1D9EB"/><path d="M179.348 259.294c32.668-.182 59.13-3.889 59.106-8.28-.025-4.39-26.527-7.801-59.195-7.618-32.667.183-59.13 3.89-59.105 8.28.024 4.39 26.526 7.801 59.194 7.618z" fill="#C0D8EB"/><path d="M237.732 251.007c0 4.371-26.264 8.052-58.704 8.23-32.441.179-58.781-3.195-58.807-7.565-.025-4.371 26.264-8.039 58.705-8.231 32.44-.191 58.78 3.208 58.806 7.566z" fill="#BFD8EA"/><path d="M178.659 259.196c32.23-.18 58.339-3.84 58.315-8.173-.024-4.334-26.172-7.701-58.403-7.521-32.23.181-58.339 3.84-58.315 8.173.024 4.334 26.172 7.701 58.403 7.521z" fill="#BED7EA"/><path d="M236.252 251.02c0 4.307-25.906 7.936-57.913 8.115-32.007.179-57.99-3.156-58.015-7.463-.026-4.307 25.906-7.937 57.926-8.116 32.019-.179 57.977 3.157 58.002 7.464z" fill="#BDD7EA"/><path d="M177.969 259.11c31.794-.177 57.548-3.789 57.524-8.066-.023-4.277-25.817-7.601-57.61-7.423-31.794.178-57.549 3.79-57.525 8.067.024 4.277 25.817 7.6 57.611 7.422z" fill="#BCD6E9"/><path d="M234.771 251.033c0 4.243-25.523 7.821-57.122 8-31.598.179-57.134-3.118-57.223-7.361-.09-4.243 25.523-7.834 57.134-8.013 31.611-.179 57.199 3.118 57.211 7.374z" fill="#BBD5E9"/><path d="M234.095 251.033c0 4.217-25.383 7.77-56.739 7.949-31.356.179-56.841-3.093-56.841-7.31 0-4.218 25.383-7.783 56.739-7.95 31.356-.166 56.765 3.093 56.841 7.311z" fill="#BAD5E9"/><path d="M176.934 258.937c31.145-.174 56.375-3.708 56.351-7.894-.023-4.185-25.29-7.437-56.435-7.263-31.146.174-56.375 3.709-56.352 7.894.024 4.186 25.291 7.437 56.436 7.263z" fill="#B9D4E9"/><path d="M176.589 258.888c30.927-.173 55.979-3.683 55.956-7.841-.023-4.157-25.113-7.387-56.04-7.214-30.927.173-55.979 3.684-55.956 7.841.023 4.157 25.113 7.387 56.04 7.214z" fill="#B8D4E8"/><path d="M231.824 251.045c0 4.128-24.848 7.668-55.553 7.784-30.705.115-55.628-3.029-55.641-7.157-.013-4.128 24.847-7.668 55.552-7.796 30.705-.128 55.616 3.042 55.642 7.169z" fill="#B7D3E8"/><path d="M231.084 251.045c0 4.103-24.669 7.566-55.157 7.732-30.488.167-55.233-3.003-55.246-7.105-.013-4.103 24.669-7.566 55.157-7.732 30.488-.166 55.22 3.003 55.246 7.105z" fill="#B6D2E8"/><path d="M175.554 258.753c30.272-.169 54.793-3.608 54.77-7.68-.022-4.073-24.58-7.237-54.852-7.068-30.271.17-54.792 3.608-54.77 7.681.023 4.072 24.581 7.237 54.852 7.067z" fill="#B5D2E7"/><path d="M229.603 251.058c0 4.039-24.248 7.451-54.366 7.668-30.117.218-54.441-2.965-54.467-7.003-.025-4.039 24.324-7.451 54.378-7.668 30.054-.217 54.442 2.965 54.455 7.003z" fill="#B4D1E7"/><path d="M174.865 258.629c29.834-.167 54.002-3.552 53.979-7.561-.022-4.009-24.226-7.124-54.06-6.957-29.834.167-54.002 3.552-53.979 7.561.022 4.009 24.226 7.124 54.06 6.957z" fill="#B3D1E7"/><path d="M228.135 251.058c0 3.988-23.979 7.349-53.599 7.515-29.62.166-53.6-2.927-53.676-6.901-.077-3.975 23.966-7.349 53.599-7.515 29.633-.166 53.651 2.927 53.676 6.901z" fill="#B2D0E6"/><path d="M227.395 251.071c0 3.949-23.801 7.285-53.191 7.451-29.391.166-53.255-2.927-53.281-6.85-.025-3.924 23.839-7.298 53.192-7.464 29.352-.166 53.255 2.901 53.28 6.863z" fill="#B1CFE6"/><path d="M226.655 251.071c0 3.923-23.622 7.234-52.795 7.4-29.174.166-52.86-2.876-52.885-6.799-.026-3.924 23.622-7.247 52.795-7.413 29.174-.166 52.86 2.889 52.885 6.812z" fill="#B0CFE6"/><path d="M225.915 251.071c0 3.834-23.444 7.182-52.4 7.349-28.957.166-52.464-2.825-52.49-6.748-.025-3.924 23.444-7.183 52.4-7.349 28.957-.166 52.464 2.863 52.49 6.748z" fill="#AFCEE5"/><path d="M225.162 251.084c0 3.834-23.265 7.118-52.005 7.284-28.739.167-52.068-2.837-52.094-6.696-.025-3.86 23.265-7.132 52.005-7.298 28.739-.166 52.094 2.837 52.094 6.71z" fill="#AECDE5"/><path d="M224.434 251.084c0 3.834-23.086 7.08-51.608 7.233-28.523.154-51.686-2.811-51.699-6.645-.012-3.834 23.087-7.08 51.609-7.247 28.523-.166 51.673 2.825 51.698 6.659z" fill="#ADCDE5"/><path d="M172.464 258.272c28.312-.158 51.246-3.371 51.225-7.175-.021-3.804-22.99-6.76-51.302-6.602-28.312.159-51.246 3.371-51.225 7.175.021 3.805 22.99 6.76 51.302 6.602z" fill="#ACCCE4"/><path d="M222.954 251.084c0 3.834-22.728 6.978-50.817 7.131-28.089.153-50.894-2.773-50.907-6.556-.013-3.783 22.729-6.965 50.83-7.119 28.102-.153 50.882 2.774 50.894 6.544z" fill="#ABCCE4"/><path d="M222.226 251.097c0 3.744-22.563 6.914-50.434 7.067-27.872.153-50.499-2.748-50.512-6.505-.012-3.757 22.55-6.914 50.435-7.067 27.884-.154 50.486 2.76 50.511 6.505z" fill="#AACBE4"/><path d="M221.486 251.097c0 3.719-22.384 6.862-50.039 7.016-27.655.153-50.103-2.735-50.128-6.454-.026-3.719 22.384-6.85 50.052-7.016 27.667-.166 50.09 2.735 50.115 6.454z" fill="#A9CAE3"/><path d="M171.085 258.075c27.438-.153 49.664-3.27 49.643-6.961-.02-3.692-22.28-6.56-49.718-6.406-27.438.153-49.664 3.27-49.644 6.961.021 3.692 22.281 6.56 49.719 6.406z" fill="#A8CAE3"/><path d="M220.057 251.109c0 3.655-22.027 6.748-49.248 6.902-27.221.153-49.311-2.684-49.337-6.39-.025-3.707 22.04-6.748 49.261-6.902 27.221-.153 49.248 2.722 49.324 6.39z" fill="#A7C9E3"/><path d="M219.266 251.109c0 3.63-21.848 6.697-48.852 6.85-27.004.154-48.916-2.671-48.942-6.3-.025-3.63 21.861-6.697 48.865-6.85 27.004-.154 48.903 2.671 48.929 6.3z" fill="#A6C8E2"/><path d="M218.526 251.109c0 3.604-21.695 6.646-48.495 6.799-26.8.154-48.495-2.645-48.495-6.249 0-3.604 21.695-6.646 48.495-6.786 26.8-.141 48.482 2.645 48.495 6.236z" fill="#A4C8E2"/><path d="M217.786 251.122c0 3.566-21.504 6.582-48.061 6.735-26.558.154-48.125-2.62-48.151-6.198-.025-3.579 21.504-6.582 48.074-6.735 26.57-.154 48.125 2.62 48.138 6.198z" fill="#A3C7E2"/><path d="M217.046 251.122c0 3.54-21.325 6.531-47.666 6.684-26.34.153-47.729-2.556-47.754-6.147-.026-3.591 21.324-6.531 47.678-6.684 26.353-.153 47.729 2.607 47.742 6.147z" fill="#A2C6E1"/><path d="M216.318 251.122c0 3.515-21.159 6.48-47.219 6.633-26.059.153-47.346-2.556-47.359-6.096-.013-3.54 21.147-6.48 47.283-6.633 26.136-.153 47.269 2.582 47.295 6.096z" fill="#A1C6E1"/><path d="M168.671 257.718c25.915-.145 46.908-3.089 46.889-6.576-.02-3.486-21.044-6.195-46.96-6.05-25.915.145-46.908 3.089-46.889 6.575.019 3.487 21.044 6.196 46.96 6.051z" fill="#A0C5E0"/><path d="M214.837 251.135c0 3.451-20.801 6.39-46.491 6.518-25.689.128-46.555-2.543-46.555-5.994 0-3.451 20.789-6.39 46.491-6.518 25.703-.128 46.53 2.543 46.555 5.994z" fill="#9FC4E0"/><path d="M214.097 251.135c0 3.425-20.623 6.39-46.095 6.467-25.473.076-46.211-2.518-46.211-5.943s20.61-6.313 46.096-6.467c25.485-.153 46.185 2.518 46.21 5.943z" fill="#9EC4E0"/><path d="M213.357 251.148c0 3.386-20.419 6.262-45.7 6.39-25.281.127-45.764-2.492-45.777-5.892-.012-3.399 20.419-6.262 45.7-6.39 25.282-.128 45.764 2.492 45.777 5.892z" fill="#9DC3DF"/><path d="M212.617 251.148c0 3.361-20.266 6.211-45.304 6.39-25.039.179-45.369-2.48-45.381-5.841-.013-3.361 20.265-6.211 45.304-6.39 25.039-.179 45.368 2.467 45.381 5.841z" fill="#9CC2DF"/><path d="M166.946 257.459c24.823-.138 44.931-2.957 44.913-6.296-.019-3.338-20.157-5.932-44.98-5.793-24.824.139-44.932 2.957-44.913 6.296.018 3.338 20.157 5.932 44.98 5.793z" fill="#9AC2DF"/><path d="M211.124 251.148c0 3.31-19.909 6.109-44.526 6.249-24.618.141-44.565-2.428-44.59-5.738-.026-3.31 19.921-6.109 44.526-6.25 24.605-.14 44.59 2.441 44.59 5.739z" fill="#99C1DE"/><path d="M210.396 251.16c0 3.272-19.729 6.045-44.13 6.186-24.401.141-44.169-2.415-44.194-5.687-.026-3.272 19.742-6.045 44.13-6.186 24.388-.14 44.182 2.454 44.194 5.687z" fill="#98C0DE"/><path d="M209.669 251.16c0 3.247-19.564 5.994-43.735 6.135-24.171.14-43.785-2.39-43.811-5.636-.025-3.246 19.564-5.994 43.735-6.135 24.171-.14 43.786 2.403 43.811 5.636z" fill="#97BFDE"/><path d="M165.567 257.25c23.956-.134 43.362-2.852 43.344-6.07-.018-3.219-19.453-5.719-43.409-5.585-23.956.134-43.362 2.851-43.344 6.07.018 3.218 19.453 5.719 43.409 5.585z" fill="#96BFDD"/><path d="M208.189 251.173c0 3.182-19.143 5.879-42.957 6.02-23.813.14-42.994-2.352-43.007-5.534-.013-3.182 19.143-5.892 42.944-6.019 23.8-.128 42.994 2.287 43.02 5.533z" fill="#95BEDD"/><path d="M207.448 251.173c0 3.157-19.04 5.828-42.56 5.969-23.52.14-42.599-2.326-42.612-5.483-.013-3.157 19.028-5.841 42.548-5.968 23.52-.128 42.611 2.326 42.624 5.482z" fill="#94BDDC"/><path d="M206.708 251.173c0 3.131-18.862 5.79-42.114 5.917-23.252.128-42.203-2.3-42.216-5.431-.012-3.131 18.862-5.789 42.114-5.917 23.252-.128 42.204 2.3 42.216 5.431z" fill="#92BDDC"/><path d="M206.019 251.186c0 3.106-18.683 5.725-41.769 5.853-23.086.128-41.808-2.287-41.821-5.38-.013-3.093 18.683-5.726 41.77-5.866 23.086-.141 41.82 2.287 41.82 5.393z" fill="#91BCDC"/><path d="M205.228 251.186c0 3.08-18.505 5.674-41.374 5.802-22.869.128-41.412-2.262-41.425-5.329-.013-3.067 18.505-5.674 41.374-5.802 22.869-.128 41.412 2.249 41.425 5.329z" fill="#90BBDB"/><path d="M204.488 251.186c0 3.054-18.326 5.623-40.978 5.751-22.653.128-41.017-2.236-41.03-5.278-.012-3.042 18.326-5.623 40.979-5.751 22.652-.128 41.016 2.236 41.029 5.278z" fill="#8FBADB"/><path d="M203.76 251.199c0 3.016-18.16 5.559-40.595 5.687-22.435.128-40.621-2.224-40.634-5.227-.013-3.003 18.148-5.572 40.583-5.7 22.435-.128 40.621 2.224 40.646 5.24z" fill="#8EBADB"/><path d="M203.02 251.199c0 2.99-17.982 5.508-40.2 5.636-22.218.128-40.225-2.198-40.251-5.189-.025-2.99 17.982-5.508 40.2-5.623 22.218-.115 40.225 2.185 40.251 5.176z" fill="#8DB9DA"/><path d="M202.28 251.199c0 2.965-17.803 5.457-39.804 5.585-22.002.127-39.83-2.173-39.855-5.112-.026-2.94 17.802-5.445 39.804-5.572 22.001-.128 39.842 2.147 39.855 5.099z" fill="#8BB8DA"/><path d="M201.54 251.212c0 2.926-17.624 5.393-39.409 5.521-21.784.127-39.434-2.16-39.459-5.112-.026-2.953 17.624-5.394 39.408-5.521 21.785-.128 39.447 2.172 39.46 5.112z" fill="#8AB8D9"/><path d="M161.774 256.696c21.56-.121 39.024-2.57 39.008-5.471-.016-2.901-17.507-5.155-39.067-5.034-21.56.121-39.025 2.57-39.008 5.471.016 2.901 17.507 5.155 39.067 5.034z" fill="#89B7D9"/><path d="M200.059 251.212c0 2.875-17.266 5.291-38.617 5.418-21.35.128-38.655-2.108-38.668-4.984-.013-2.875 17.279-5.291 38.617-5.406 21.338-.115 38.656 2.109 38.668 4.972z" fill="#88B6D9"/><path d="M161.084 256.572c21.123-.118 38.233-2.514 38.218-5.351-.016-2.838-17.153-5.042-38.276-4.924-21.123.118-38.233 2.514-38.218 5.351.016 2.838 17.153 5.042 38.276 4.924z" fill="#87B5D8"/><path d="M198.579 251.224c0 2.812-16.909 5.112-37.826 5.304-20.917.192-37.864-2.07-37.877-4.882-.013-2.811 16.922-5.112 37.826-5.304 20.904-.191 37.864 2.071 37.877 4.882z" fill="#85B5D8"/><path d="M197.852 251.224c0 2.786-16.744 5.112-37.443 5.253-20.7.141-37.469-2.045-37.482-4.831-.013-2.786 16.744-5.112 37.431-5.24 20.687-.127 37.468 2.032 37.494 4.818z" fill="#84B4D8"/><path d="M197.086 251.224c0 2.761-16.591 5.112-37.01 5.202-20.419.089-37.009-2.019-37.086-4.78-.076-2.76 16.591-5.112 37.01-5.189 20.419-.076 37.086 2.02 37.086 4.767z" fill="#83B3D7"/><path d="M196.371 251.237c0 2.722-16.399 5.023-36.652 5.112-20.253.09-36.652-2.032-36.652-4.703 0-2.671 16.387-5.022 36.64-5.112 20.253-.089 36.651 1.981 36.664 4.703z" fill="#82B2D7"/><path d="M195.631 251.237c0 2.697-16.22 4.972-36.256 5.112-20.036.141-36.308-2.032-36.308-4.703 0-2.671 16.208-4.971 36.244-5.112 20.036-.14 36.307 2.007 36.32 4.703z" fill="#81B2D6"/><path d="M194.891 251.237c0 2.671-16.042 4.92-35.861 5.035-19.819.116-35.886-1.955-35.899-4.626-.013-2.671 16.029-4.92 35.848-5.022 19.819-.103 35.899 1.955 35.912 4.613z" fill="#7FB1D6"/><path d="M194.151 251.25c0 2.633-15.863 4.856-35.465 4.971-19.603.115-35.491-1.904-35.517-4.575-.025-2.671 15.863-4.856 35.466-4.971 19.602-.115 35.503 1.929 35.516 4.575z" fill="#7EB0D6"/><path d="M193.411 251.25c0 2.556-15.685 4.805-35.07 4.92-19.385.115-35.095-1.917-35.12-4.524-.026-2.607 15.697-4.805 35.069-4.92 19.373-.115 35.108 1.917 35.121 4.524z" fill="#7DAFD5"/><path d="M192.67 251.25c0 2.556-15.505 4.754-34.674 4.869-19.168.115-34.712-1.891-34.725-4.473-.012-2.581 15.519-4.754 34.674-4.856 19.156-.103 34.712 1.891 34.725 4.46z" fill="#7CAFD5"/><path d="M191.981 251.263c0 2.556-15.314 4.69-34.291 4.805-18.977.115-34.316-1.879-34.329-4.422-.013-2.543 15.314-4.703 34.278-4.805 18.964-.102 34.342 1.866 34.342 4.422z" fill="#7AAED4"/><path d="M157.291 256.031c18.726-.105 33.896-2.232 33.882-4.752-.014-2.52-15.207-4.478-33.933-4.373-18.727.105-33.897 2.232-33.883 4.752.015 2.52 15.207 4.478 33.934 4.373z" fill="#79ADD4"/><path d="M190.462 251.263c0 2.492-14.982 4.588-33.5 4.703-18.517.115-33.525-1.828-33.538-4.32-.012-2.492 14.983-4.588 33.487-4.703 18.505-.115 33.538 1.828 33.551 4.32z" fill="#78ACD4"/><path d="M189.722 251.275c0 2.454-14.803 4.537-33.104 4.64-18.3.102-33.18-1.815-33.18-4.269s14.803-4.537 33.091-4.639c18.288-.102 33.181 1.802 33.193 4.268z" fill="#77ACD3"/><path d="M156.256 255.858c18.078-.101 32.723-2.152 32.709-4.58-.013-2.428-14.68-4.314-32.758-4.213-18.078.101-32.722 2.152-32.709 4.58.014 2.428 14.68 4.314 32.758 4.213z" fill="#75ABD3"/><path d="M188.242 251.275c0 2.403-14.447 4.435-32.313 4.537-17.867.103-32.339-1.763-32.351-4.166-.013-2.403 14.446-4.435 32.313-4.537 17.866-.102 32.338 1.764 32.351 4.166z" fill="#74AAD2"/><path d="M187.501 251.275c0 2.378-14.267 4.384-31.904 4.486-17.637.103-31.905-1.751-31.905-4.115 0-2.364 14.268-4.383 31.905-4.473 17.637-.089 31.892 1.738 31.904 4.102z" fill="#73A9D2"/><path d="M186.761 251.288c0 2.339-14.038 4.32-31.521 4.422-17.484.102-31.548-1.725-31.56-4.064-.013-2.339 14.038-4.32 31.521-4.422 17.484-.102 31.548 1.713 31.56 4.064z" fill="#72A8D2"/><path d="M186.034 251.288c0 2.313-13.923 4.269-31.139 4.371-17.215.102-31.151-1.7-31.164-4.013-.013-2.313 13.923-4.268 31.126-4.371 17.203-.102 31.164 1.7 31.177 4.013z" fill="#70A8D1"/><path d="M185.294 251.288c0 2.288-13.757 4.218-30.743 4.32-16.986.102-30.756-1.687-30.769-3.962-.013-2.275 13.745-4.217 30.731-4.32 16.986-.102 30.768 1.687 30.781 3.962z" fill="#6FA7D1"/><path d="M154.2 255.55c16.767-.094 30.349-1.995 30.337-4.247-.013-2.251-13.615-4.001-30.383-3.907-16.767.094-30.349 1.995-30.337 4.247.013 2.251 13.615 4.001 30.383 3.907z" fill="#6EA6D0"/><path d="M183.813 251.301c0 2.224-13.4 4.102-29.952 4.205-16.552.102-29.977-1.636-29.99-3.834-.013-2.199 13.4-4.116 29.952-4.205 16.552-.089 29.978 1.61 29.99 3.834z" fill="#6CA5D0"/><path d="M183.048 251.301c0 2.198-13.221 4.051-29.556 4.154-16.336.102-29.582-1.624-29.595-3.834-.013-2.211 13.221-4.039 29.556-4.141 16.335-.102 29.595 1.623 29.595 3.821z" fill="#6BA5CF"/><path d="M182.333 251.314c0 2.16-13.043 3.987-29.161 4.077-16.118.089-29.186-1.585-29.199-3.758-.013-2.172 13.043-3.987 29.161-4.077 16.118-.089 29.186 1.649 29.199 3.758z" fill="#6AA4CF"/><path d="M181.593 251.314c0 2.134-12.864 3.936-28.765 4.026-15.901.089-28.791-1.56-28.804-3.707-.012-2.147 12.864-3.936 28.766-4.025 15.901-.09 28.79 1.597 28.803 3.706z" fill="#68A3CF"/><path d="M180.853 251.314c0 2.109-12.685 3.834-28.37 3.974-15.684.141-28.395-1.546-28.407-3.655-.013-2.108 12.685-3.834 28.369-3.974 15.684-.141 28.395 1.546 28.408 3.655z" fill="#67A2CE"/><path d="M180.113 251.327c0 2.07-12.507 3.834-27.974 3.91-15.467.077-28-1.521-28.076-3.604-.077-2.083 12.506-3.834 27.974-3.923 15.467-.09 28.076 1.495 28.076 3.617z" fill="#66A1CE"/><path d="M179.385 251.327c0 2.044-12.34 3.834-27.591 3.834-15.25 0-27.603-1.496-27.616-3.553-.013-2.058 12.34-3.834 27.578-3.834s27.617 1.508 27.629 3.553z" fill="#65A1CD"/><path d="M178.645 251.327c0 2.019-12.162 3.731-27.195 3.834-15.033.102-27.208-1.483-27.221-3.502-.013-2.019 12.162-3.719 27.183-3.834 15.02-.115 27.221 1.482 27.233 3.502z" fill="#63A0CD"/><path d="M177.943 251.339c0 1.981-11.983 3.668-26.799 3.745-14.817.077-26.8-1.457-26.8-3.451 0-1.993 11.983-3.668 26.8-3.757 14.816-.089 26.799 1.47 26.799 3.463z" fill="#629FCC"/><path d="M177.165 251.339c0 1.956-11.805 3.617-26.404 3.694-14.6.076-26.417-1.432-26.417-3.4s11.804-3.616 26.391-3.693c14.587-.077 26.417 1.431 26.43 3.399z" fill="#619ECC"/><path d="M150.407 255.009c14.371-.081 26.012-1.714 26.001-3.648-.011-1.933-11.669-3.436-26.04-3.356-14.371.081-26.013 1.714-26.002 3.648.011 1.933 11.67 3.436 26.041 3.356z" fill="#5F9DCC"/><path d="M175.684 251.339c0 1.905-11.486 3.515-25.613 3.592-14.127.076-25.638-1.393-25.651-3.298-.013-1.904 11.486-3.514 25.613-3.591 14.127-.077 25.638 1.406 25.651 3.297z" fill="#5E9CCB"/><path d="M174.944 251.352c0 1.866-11.269 3.451-25.217 3.527-13.949.077-25.243-1.367-25.256-3.246-.013-1.878 11.282-3.45 25.218-3.54 13.935-.089 25.255 1.381 25.255 3.259z" fill="#5D9CCB"/><path d="M174.204 251.352c0 1.84-11.103 3.4-24.822 3.476-13.719.077-24.847-1.354-24.86-3.195-.013-1.84 11.103-3.399 24.822-3.476 13.719-.077 24.86 1.355 24.86 3.195z" fill="#5B9BCA"/><path d="M173.476 251.352c0 1.815-10.936 3.349-24.438 3.425-13.502.077-24.452-1.278-24.465-3.144-.013-1.866 10.924-3.348 24.426-3.425 13.502-.076 24.465 1.329 24.477 3.144z" fill="#5A9ACA"/><path d="M172.737 251.365c0 1.776-10.759 3.284-24.044 3.361-13.285.077-24.056-1.278-24.068-3.093-.013-1.814 10.758-3.297 24.03-3.374 13.272-.076 24.069 1.317 24.082 3.106z" fill="#5899C9"/><path d="M171.996 251.365c0 1.751-10.579 3.246-23.648 3.31-13.068.064-23.66-1.278-23.673-3.042-.012-1.763 10.58-3.246 23.648-3.31 13.068-.064 23.66 1.291 23.673 3.042z" fill="#5798C9"/><path d="M147.992 254.639c12.849-.072 23.257-1.532 23.247-3.261-.01-1.73-10.433-3.073-23.282-3.001-12.848.072-23.256 1.532-23.247 3.261.01 1.729 10.434 3.073 23.282 3.001z" fill="#5697C9"/><path d="M170.516 251.378c0 1.687-10.21 3.131-22.857 3.195-12.647.064-22.869-1.278-22.882-2.94-.012-1.661 10.21-3.131 22.857-3.207 12.647-.077 22.869 1.252 22.882 2.952z" fill="#5497C8"/><path d="M169.775 251.378c0 1.674-10.043 3.08-22.461 3.144-12.417.064-22.473-1.278-22.486-2.889-.013-1.61 10.044-3.08 22.461-3.156 12.417-.077 22.473 1.227 22.486 2.901z" fill="#5396C8"/><path d="M169.01 251.378c0 1.648-9.865 3.029-22.065 3.092-12.201.064-22.091-1.201-22.091-2.837 0-1.636 9.865-3.029 22.065-3.092 12.2-.064 22.091 1.201 22.091 2.837z" fill="#5295C7"/><path d="M168.295 251.391c0 1.61-9.686 2.964-21.695 3.028-12.009.064-21.695-1.175-21.695-2.786 0-1.61 9.686-2.977 21.695-3.041 12.009-.064 21.695 1.188 21.695 2.799z" fill="#5094C7"/><path d="M167.568 251.391c0 1.584-9.521 2.913-21.287 2.977-11.766.064-21.3-1.163-21.3-2.735 0-1.572 9.508-2.926 21.274-2.99 11.767-.064 21.3 1.163 21.313 2.748z" fill="#4F93C6"/><path d="M166.828 251.391c0 1.559-9.342 2.862-20.891 2.926-11.55.064-20.904-1.137-20.917-2.684-.013-1.546 9.342-2.862 20.891-2.926 11.55-.064 20.904 1.137 20.917 2.684z" fill="#4E92C6"/><path d="M166.088 251.391c0 1.533-9.163 2.811-20.496 2.875-11.332.064-20.508-1.112-20.521-2.633-.012-1.521 9.176-2.811 20.496-2.875 11.319-.064 20.508 1.112 20.521 2.633z" fill="#4C92C5"/><path d="M165.347 251.403c0 1.496-8.933 2.748-20.1 2.812-11.167.064-20.113-1.099-20.125-2.556-.013-1.457 8.933-2.761 20.099-2.824 11.167-.064 20.113 1.073 20.126 2.568z" fill="#4B91C5"/><path d="M164.607 251.403c0 1.47-8.806 2.697-19.704 2.761-10.899.064-19.717-1.074-19.73-2.556-.013-1.483 8.818-2.71 19.704-2.773 10.886-.064 19.717 1.111 19.73 2.568z" fill="#4990C5"/><path d="M163.905 251.403c0 1.444-8.64 2.659-19.308 2.71-10.669.051-19.36-1.074-19.373-2.48-.013-1.405 8.64-2.658 19.309-2.709 10.669-.051 19.372 1.048 19.372 2.479z" fill="#488FC4"/><path d="M144.199 254.072c10.452-.058 18.919-1.244 18.911-2.649-.008-1.405-8.487-2.496-18.939-2.437-10.453.058-18.92 1.244-18.912 2.649.008 1.404 8.488 2.496 18.94 2.437z" fill="#478EC4"/><path d="M162.386 251.416c0 1.38-8.282 2.556-18.517 2.556s-18.53-1.01-18.543-2.39c-.013-1.38 8.283-2.556 18.518-2.556 10.235 0 18.542 1.01 18.542 2.39z" fill="#458DC3"/><path d="M161.659 251.416c0 1.355-8.117 2.556-18.135 2.556s-18.134-.984-18.147-2.339c-.013-1.354 8.104-2.479 18.122-2.556 10.018-.076 18.147.997 18.16 2.339z" fill="#448CC3"/><path d="M160.919 251.429c0 1.278-7.938 2.428-17.739 2.479-9.801.051-17.752-.971-17.752-2.287 0-1.317 7.925-2.429 17.726-2.48 9.801-.051 17.752.972 17.765 2.288z" fill="#428CC2"/><path d="M160.179 251.429c0 1.278-7.759 2.377-17.343 2.428-9.585.051-17.357-.946-17.357-2.236 0-1.291 7.798-2.416 17.331-2.416s17.356.933 17.369 2.224z" fill="#418BC2"/><path d="M159.438 251.429c0 1.278-7.58 2.326-16.947 2.377-9.367.051-16.961-.92-16.961-2.185 0-1.266 7.568-2.314 16.935-2.378 9.367-.063 16.961.933 16.973 2.186z" fill="#3F8AC1"/><path d="M158.698 251.442c0 1.278-7.402 2.262-16.59 2.313-9.189.051-16.59-.908-16.59-2.134 0-1.227 7.401-2.263 16.59-2.314 9.188-.051 16.578.895 16.59 2.135z" fill="#3E89C1"/><path d="M157.959 251.442c0 1.201-7.224 2.211-16.157 2.262-8.933.051-16.182-.882-16.182-2.083 0-1.202 7.223-2.211 16.144-2.263 8.92-.051 16.195.882 16.195 2.084z" fill="#3D88C0"/><path d="M157.218 251.442c0 1.175-7.045 2.159-15.761 2.211-8.717.051-15.774-.857-15.787-2.032-.012-1.176 7.058-2.16 15.761-2.211 8.704-.051 15.787.869 15.787 2.032z" fill="#3B87C0"/><path d="M141.096 253.604c8.493-.048 15.372-1.013 15.366-2.157-.007-1.143-6.897-2.031-15.389-1.984-8.493.048-15.373 1.013-15.367 2.156.007 1.144 6.897 2.032 15.39 1.985z" fill="#3A86C0"/><path d="M155.75 251.454c0 1.112-6.699 2.045-14.982 2.096-8.282.051-14.982-.818-14.995-1.929-.013-1.112 6.7-2.045 14.97-2.096 8.269-.051 14.995.818 15.007 1.929z" fill="#3885BF"/><path d="M140.406 253.505c8.056-.045 14.581-.957 14.575-2.036-.006-1.08-6.541-1.919-14.597-1.874-8.056.045-14.582.957-14.576 2.037.006 1.08 6.542 1.918 14.598 1.873z" fill="#3784BF"/><path d="M140.061 253.456c7.837-.044 14.186-.932 14.18-1.983-.006-1.052-6.364-1.869-14.201-1.825-7.838.044-14.187.932-14.181 1.983.006 1.052 6.364 1.869 14.202 1.825z" fill="#3584BE"/><path d="M153.53 251.467c0 1.023-6.164 1.892-13.795 1.93-7.632.038-13.809-.754-13.809-1.776 0-1.023 6.164-1.892 13.796-1.93 7.631-.039 13.795.792 13.808 1.776z" fill="#3483BE"/><path d="M152.79 251.467c0 .997-5.998 1.841-13.4 1.879-7.402.038-13.413-.729-13.413-1.725 0-.997 5.985-1.841 13.4-1.879 7.415-.038 13.413.741 13.413 1.725z" fill="#3282BD"/><path d="M152.049 251.467c0 .971-5.819 1.789-13.004 1.828-7.185.038-13.017-.703-13.017-1.674 0-.972 5.819-1.79 13.004-1.828 7.185-.038 13.017.69 13.017 1.674z" fill="#3181BD"/><path d="M151.309 251.48c0 .933-5.641 1.725-12.608 1.764-6.968.038-12.622-.69-12.622-1.623s5.641-1.726 12.609-1.764c6.968-.038 12.621.626 12.621 1.623z" fill="#2F80BC"/><path d="M150.569 251.48c0 .907-5.462 1.674-12.213 1.712-6.751.039-12.226-.664-12.226-1.571 0-.908 5.462-1.675 12.213-1.713 6.751-.038 12.226.665 12.226 1.572z" fill="#2E7FBC"/><path d="M149.867 251.48c0 .882-5.296 1.623-11.83 1.661-6.534.039-11.83-.639-11.83-1.52 0-.882 5.283-1.624 11.817-1.662 6.535-.038 11.843.652 11.843 1.521z" fill="#2C7EBB"/><path d="M149.101 251.493c0 .843-5.105 1.559-11.485 1.597-6.381.039-11.486-.626-11.486-1.469 0-.844 5.105-1.572 11.486-1.611 6.38-.038 11.472.626 11.485 1.483z" fill="#2B7DBB"/><path d="M137.315 253.05c6.097-.034 11.035-.726 11.031-1.544-.005-.819-4.951-1.455-11.047-1.421-6.097.034-11.036.725-11.031 1.544.005.819 4.951 1.455 11.047 1.421z" fill="#2A7CBA"/><path d="M147.621 251.493c0 .792-4.76 1.457-10.643 1.495-5.883.038-10.643-.575-10.656-1.367-.013-.793 4.76-1.457 10.643-1.496 5.883-.038 10.656.575 10.656 1.368z" fill="#287BBA"/><path d="M146.881 251.506c0 .754-4.582 1.393-10.21 1.431-5.628.038-10.209-.562-10.209-1.278s4.581-1.406 10.209-1.444c5.628-.039 10.21.524 10.21 1.291z" fill="#277BB9"/><path d="M146.14 251.506c0 .728-4.402 1.354-9.852 1.38-5.449.025-9.852-.537-9.865-1.278-.012-.741 4.403-1.355 9.852-1.38 5.45-.026 9.865.549 9.865 1.278z" fill="#257AB9"/><path d="M145.4 251.506c0 .702-4.224 1.278-9.456 1.278-5.232 0-9.469-.512-9.469-1.278 0-.767 4.237-1.278 9.456-1.278 5.22 0 9.469.575 9.469 1.278z" fill="#2479B8"/><path d="M144.66 251.518c0 .665-4.045 1.278-9.06 1.278-5.016 0-9.074-.498-9.074-1.163 0-.664 4.058-1.278 9.061-1.278 5.002 0 9.073.486 9.073 1.163z" fill="#2278B8"/><path d="M143.92 251.518c0 .639-3.829 1.189-8.665 1.214-4.837.026-8.678-.472-8.678-1.111s3.828-1.189 8.665-1.278c4.837-.09 8.678.524 8.678 1.175z" fill="#2177B7"/><path d="M143.193 251.518c0 .614-3.701 1.138-8.283 1.163-4.581.026-8.282-.447-8.282-1.073 0-.626 3.701-1.125 8.27-1.15 4.568-.026 8.282.447 8.295 1.06z" fill="#1F76B7"/><path d="M142.452 251.518c0 .588-3.522 1.087-7.886 1.112-4.365.026-7.887-.434-7.887-1.022 0-.588 3.522-1.074 7.874-1.099 4.352-.026 7.887.434 7.899 1.009z" fill="#1E75B6"/><path d="M141.712 251.531c0 .55-3.356 1.022-7.491 1.048-4.135.026-7.491-.409-7.491-.971 0-.563 3.344-1.023 7.478-1.048 4.135-.026 7.504.409 7.504.971z" fill="#1C74B6"/><path d="M140.934 251.531c0 .524-3.178.971-7.096.997-3.918.026-7.095-.383-7.095-.92s3.165-.972 7.082-.984c3.918-.013 7.109.383 7.109.907z" fill="#1A73B6"/><path d="M140.232 251.531c0 .499-2.999.92-6.7.946-3.701.025-6.7-.371-6.7-.869 0-.499 2.986-.92 6.687-.933 3.701-.013 6.713.358 6.713.856z" fill="#1972B5"/><path d="M139.492 251.544c0 .46-2.82.856-6.304.882-3.484.025-6.305-.345-6.381-.818-.077-.473 2.82-.856 6.304-.882 3.484-.026 6.381.345 6.381.818z" fill="#1771B5"/><path d="M138.752 251.544c0 .434-2.642.805-5.909.831-3.267.025-5.909-.32-5.922-.767-.012-.448 2.655-.805 5.922-.831 3.267-.025 5.909.332 5.909.767z" fill="#1670B4"/><path d="M138.011 251.544c0 .409-2.463.754-5.513.779-3.05.026-5.526-.306-5.526-.715s2.476-.754 5.526-.767c3.05-.013 5.513.294 5.513.703z" fill="#146FB4"/><path d="M137.284 251.557c0 .37-2.297.703-5.105.715-2.807.013-5.104-.281-5.104-.664 0-.384 2.297-.703 5.104-.716 2.808-.013 5.092.281 5.105.665z" fill="#136EB3"/><path d="M136.544 251.557c0 .345-2.118.651-4.735.664-2.616.013-4.734-.255-4.734-.613s2.118-.652 4.734-.665c2.617-.013 4.735.256 4.735.614z" fill="#116EB3"/><path d="M135.829 251.557c0 .319-1.94.6-4.339.613-2.399.013-4.339-.243-4.339-.562 0-.32 1.94-.588 4.339-.601 2.399-.013 4.339.23 4.339.55z" fill="#106DB2"/><path d="M135.064 251.569c0 .282-1.762.537-3.944.55-2.182.013-3.943-.217-3.943-.511 0-.294 1.761-.537 3.943-.55 2.182-.013 3.944.218 3.944.511z" fill="#0E6CB2"/><path d="M134.323 251.569c0 .269-1.582.486-3.548.499-1.965.013-3.547-.192-3.547-.46 0-.269 1.582-.486 3.547-.499 1.966-.012 3.548.192 3.548.46z" fill="#0D6BB1"/><path d="M133.583 251.569c0 .243-1.404.435-3.152.448-1.748.013-3.152-.179-3.152-.409 0-.23 1.404-.435 3.152-.448 1.748-.012 3.152.179 3.152.409z" fill="#0B6AB1"/><path d="M132.843 251.582c0 .205-1.276.371-2.757.384-1.48.012-2.756-.154-2.756-.358 0-.205 1.276-.384 2.756-.384 1.481 0 2.757.141 2.757.358z" fill="#0969B0"/><path d="M132.103 251.582c0 .179-1.047.32-2.361.332-1.315.013-2.361-.127-2.361-.306s1.059-.32 2.361-.333c1.302-.012 2.361.128 2.361.307z" fill="#0868B0"/><path d="M131.376 251.582c0 .154-.881.269-1.979.281-1.097.013-1.965-.115-1.965-.255 0-.141.881-.269 1.965-.281a4.111 4.111 0 011.979.255z" fill="#0667AF"/><path d="M130.635 251.582c0 .128-.715.217-1.582.23a3.276 3.276 0 01-1.583-.204c0-.115.715-.217 1.583-.217.867 0 1.582.076 1.582.191z" fill="#0566AF"/><path d="M129.895 251.595c0 .089-.536.153-1.187.166-.651.013-1.187-.064-1.187-.153 0-.09.536-.166 1.187-.166s1.187.064 1.187.153z" fill="#0365AE"/><path d="M129.155 251.595s-.358.115-.791.115a1.709 1.709 0 01-.792-.102s.358-.115.792-.115c.433 0 .791.038.791.102z" fill="#0264AE"/><path d="M128.415 251.595h-.396a.85.85 0 01-.395 0h.395a.855.855 0 01.396 0z" fill="#0063AD"/></g><path d="M89.414 123.769l-12.979-7.297-6.432 1.814 12.98 7.298 6.431-1.815zm-3.101-40.564l1.876 6.71 12.979 7.31-1.876-6.722-12.979-7.298zm-68.289 5.854l12.98 7.297-1.8-6.441-12.979-7.298 1.8 6.442zm72.5 9.163l3.714 13.24-9.507 2.684 12.978 7.297 9.508-2.671-3.714-13.253-12.979-7.297zM26.869 81.608L24.2 72.087l43.225-12.154-12.992-7.297-43.211 12.153 2.667 9.521 12.979 7.298zm30.538 40.219l-17.84 5.022-5.016-17.879-12.991-7.298 10.707 38.174 38.12-10.722-12.98-7.297zM62.73 50.31l12.978 7.297 4.058 2.275 12.98 7.297-6.573-23.464-23.444 6.594zm19.372 17.879l1.876 6.71 12.991 7.31-1.889-6.723-12.978-7.297z" opacity=".5" fill="#7BDAFF"/><path d="M141.164 124.459h-25.116l9.036-9.035h25.115l-9.035 9.035zm-20.483-1.917h19.691l5.194-5.201h-19.691l-5.194 5.201zm25.357-48.704h-25.064l-9.329-9.343h25.115l9.278 9.343zm-24.247-1.917h19.691l-5.487-5.496h-19.717l5.513 5.496zM53.4 124.459H28.286l-9.022-9.035h25.115l9.023 9.035zm-24.247-1.917h19.615l-5.181-5.201H23.895l5.258 5.201zm128.282-14.377h-25.116l11.486-11.502-15.633-15.566h25.115l15.582 15.591-11.434 11.477zm-20.483-1.917h19.691l9.546-9.56-13.655-13.623h-19.679l13.643 13.674-9.546 9.509zm-99.823 1.917h-25.09L.554 96.663l48.712-48.756H74.38L25.669 96.688l11.46 11.477zm-24.247-1.917h19.576l-9.546-9.56 46.836-46.851H50.057L3.272 96.688l9.61 9.56zm71.9 74.737l-44.488-44.5h25.115l19.373 19.349 19.27-19.349h25.115l-44.385 44.5zm-39.855-42.583l39.855 39.861 39.753-39.861h-19.692l-20.061 20.154-20.177-20.154H44.926zm68.02-97.754H56.514L84.782 12.39l28.165 28.257zm-51.8-1.917h47.218L84.782 15.113 61.147 38.731zm68.365 18.519h-25.115l-9.33-9.343h25.116l9.329 9.342zm-24.311-1.918h19.678l-5.487-5.495H99.7l5.501 5.495z" fill="#fff"/><g opacity=".5"><path d="M400.904 67.32v-.333a5.825 5.825 0 00-2.284-2.811l-.281-.154-33.844-19.502-33.704-19.49-.281-.166a2.792 2.792 0 00-2.782-.127h-.14l-4.441 2.556 2.552 1.086-8.933 47.286a6.69 6.69 0 00.485 3.77v.192a5.82 5.82 0 002.284 2.812l67.344 38.966-.613 2.965 4.212-2.441a3.434 3.434 0 001.672-2.556l9.124-48.411a6.544 6.544 0 00-.37-3.642z" fill="#fff"/><path d="M383.255 124.357l-67.97-39.311a7.097 7.097 0 01-2.782-7.093l8.934-47.708c.51-2.748 2.552-4 4.658-2.812l67.956 39.312a7.144 7.144 0 012.795 7.118l-8.933 47.708c-.523 2.709-2.604 3.975-4.658 2.786z" fill="url(#paint0_linear_37_10092)"/><path d="M393.835 66.553l-33.704-19.49-10.567 56.066 33.41 21.075a3.107 3.107 0 003.111.265 3.102 3.102 0 001.764-2.579l9.112-48.397a7.052 7.052 0 00-3.126-6.94z" fill="url(#paint1_linear_37_10092)"/><path d="M326.414 27.561l33.717 19.502-10.503 55.721-34.062-17.572a7.065 7.065 0 01-2.583-3.01 7.084 7.084 0 01-.556-3.93l9.125-48.398a3.092 3.092 0 011.755-2.58 3.088 3.088 0 013.107.267z" fill="url(#paint2_linear_37_10092)"/><path d="M312.861 81.902a6.59 6.59 0 002.705 3.31l67.408 38.992a3.2 3.2 0 003.293.153l-30.207-55.72-43.199 13.265z" fill="url(#paint3_linear_37_10092)"/><path d="M396.527 69.85a6.657 6.657 0 00-2.693-3.297l-67.42-38.992a3.176 3.176 0 00-3.28-.166l30.194 55.734 43.199-13.279z" fill="url(#paint4_linear_37_10092)"/></g><path d="M86.058 108.356l.14-.345c.04-.078.073-.159.102-.242l.115-.256a14.526 14.526 0 015.768-7.093l.69-.396 85.146-49.254 85.147-49.242.702-.409a6.996 6.996 0 017.044-.32l.192.09.166.09 11.243 6.492-6.509 2.748 22.487 119.391a17.03 17.03 0 01-1.277 9.546l-.102.256-.102.23a14.606 14.606 0 01-5.768 7.093l-169.783 98.227 1.608 7.489-10.656-6.172-.166-.09a8.774 8.774 0 01-4.212-6.39L84.96 117.571a16.882 16.882 0 011.098-9.215z" fill="#fff"/><path d="M130.635 252.451l171.697-99.313c5.194-3.004 8.346-11.055 7.045-17.995L286.673 14.64c-1.276-6.94-6.572-10.121-11.766-7.118L103.21 106.823c-5.195 3.003-8.347 11.067-7.032 17.994l22.69 120.554c1.315 6.889 6.573 10.084 11.767 7.08z" fill="url(#paint5_linear_37_10092)"/><path d="M103.924 106.414l85.147-49.242 26.685 141.654-84.406 53.216c-5.577 3.221-11.091.614-12.303-5.84L96.012 123.961c-1.212-6.467 2.323-14.314 7.912-17.547z" fill="url(#paint6_linear_37_10092)"/><path d="M274.205 7.918l-85.146 49.254 26.519 140.772 86.052-44.397c5.59-3.234 9.125-11.081 7.9-17.535L286.559 13.759c-1.264-6.454-6.777-9.061-12.354-5.84z" fill="url(#paint7_linear_37_10092)"/><path d="M308.458 145.201a16.844 16.844 0 01-6.828 8.346l-170.293 98.495a8.085 8.085 0 01-8.308.409l76.303-140.772 109.126 33.522z" fill="url(#paint8_linear_37_10092)"/><path d="M97.097 114.759a16.812 16.812 0 016.827-8.345L274.205 7.918a8.082 8.082 0 018.308-.409l-76.29 140.734-109.126-33.484z" fill="url(#paint9_linear_37_10092)"/><defs><linearGradient id="paint0_linear_37_10092" x1="319.124" y1="61.355" x2="399.817" y2="76.851" gradientUnits="userSpaceOnUse"><stop stop-color="#7BDAFF"/><stop offset="1" stop-color="#59BDEF"/></linearGradient><linearGradient id="paint1_linear_37_10092" x1="401.739" y1="168.43" x2="360.962" y2="91.276" gradientUnits="userSpaceOnUse"><stop offset=".77" stop-color="#59BDEF"/><stop offset=".85" stop-color="#55B8EB"/><stop offset=".93" stop-color="#49ABE1"/><stop offset="1" stop-color="#3A9BD5"/></linearGradient><linearGradient id="paint2_linear_37_10092" x1="281.203" y1="93.432" x2="338.465" y2="69.262" gradientUnits="userSpaceOnUse"><stop offset=".77" stop-color="#59BDEF"/><stop offset=".85" stop-color="#55B8EB"/><stop offset=".93" stop-color="#49ABE1"/><stop offset="1" stop-color="#3A9BD5"/></linearGradient><linearGradient id="paint3_linear_37_10092" x1="340.282" y1="169.026" x2="381.076" y2="98.418" gradientUnits="userSpaceOnUse"><stop offset=".77" stop-color="#3A9BD5"/><stop offset=".84" stop-color="#3896D2"/><stop offset=".92" stop-color="#3189C9"/><stop offset="1" stop-color="#2573BA"/></linearGradient><linearGradient id="paint4_linear_37_10092" x1="339.467" y1="27.689" x2="414.97" y2="85.394" gradientUnits="userSpaceOnUse"><stop stop-color="#7BDAFF"/><stop offset="1" stop-color="#59BDEF"/></linearGradient><linearGradient id="paint5_linear_37_10092" x1="292.719" y1="79.835" x2="88.873" y2="118.98" gradientUnits="userSpaceOnUse"><stop stop-color="#7BDAFF"/><stop offset="1" stop-color="#59BDEF"/></linearGradient><linearGradient id="paint6_linear_37_10092" x1="84.01" y1="350.319" x2="187.015" y2="155.423" gradientUnits="userSpaceOnUse"><stop offset=".77" stop-color="#59BDEF"/><stop offset=".85" stop-color="#55B8EB"/><stop offset=".93" stop-color="#49ABE1"/><stop offset="1" stop-color="#3A9BD5"/></linearGradient><linearGradient id="paint7_linear_37_10092" x1="373.177" y1="177.763" x2="228.519" y2="116.709" gradientUnits="userSpaceOnUse"><stop offset=".77" stop-color="#59BDEF"/><stop offset=".85" stop-color="#55B8EB"/><stop offset=".93" stop-color="#49ABE1"/><stop offset="1" stop-color="#3A9BD5"/></linearGradient><linearGradient id="paint8_linear_37_10092" x1="239.264" y1="351.83" x2="136.212" y2="173.461" gradientUnits="userSpaceOnUse"><stop offset=".77" stop-color="#3A9BD5"/><stop offset=".84" stop-color="#3896D2"/><stop offset=".92" stop-color="#3189C9"/><stop offset="1" stop-color="#2573BA"/></linearGradient><linearGradient id="paint9_linear_37_10092" x1="241.312" y1="-5.196" x2="50.578" y2="140.566" gradientUnits="userSpaceOnUse"><stop stop-color="#7BDAFF"/><stop offset="1" stop-color="#59BDEF"/></linearGradient></defs></svg>