<svg width="33" height="32" viewBox="0 0 33 32" fill="none" xmlns="http://www.w3.org/2000/svg">
<rect x="0.333008" width="32" height="32" rx="6.09524" fill="#0089FF"/>
<path d="M23.1321 14.3963C23.1217 10.6563 20.0731 7.61816 16.3331 7.61816C12.5931 7.61816 9.54453 10.6563 9.53405 14.3963C8.61215 14.721 7.95215 15.601 7.95215 16.6277V19.1629C7.95215 20.4725 9.01024 21.5305 10.3198 21.5305C11.6293 21.5305 12.6874 20.4725 12.6874 19.1629V16.6277C12.6874 15.601 12.0274 14.721 11.1055 14.3963C11.116 11.5258 13.4521 9.18959 16.3331 9.18959C19.2141 9.18959 21.5502 11.5258 21.5607 14.3963C20.6388 14.721 19.9788 15.601 19.9788 16.6277V19.1629C19.9788 20.1267 20.5655 20.9648 21.4036 21.3315C21.1941 21.6877 20.8169 21.9391 20.3769 21.9391H19.0569C18.7741 21.4153 18.2293 21.0696 17.6007 21.0696C16.6893 21.0696 15.9455 21.8134 15.9455 22.7248C15.9455 23.6363 16.6893 24.3801 17.6007 24.3801C18.2293 24.3801 18.7845 24.0239 19.0569 23.5105H20.3664C21.655 23.5105 22.7341 22.6201 23.0379 21.4258C24.0121 21.1325 24.7141 20.2315 24.7141 19.1629V16.6277C24.7141 15.601 24.0541 14.721 23.1321 14.3963ZM11.116 19.1629C11.116 19.6029 10.7598 19.9591 10.3198 19.9591C9.87977 19.9591 9.52358 19.6029 9.52358 19.1629V16.6277C9.52358 16.1877 9.87977 15.8315 10.3198 15.8315C10.7598 15.8315 11.116 16.1877 11.116 16.6277V19.1629ZM23.1426 19.1629C23.1426 19.6029 22.7864 19.9591 22.3464 19.9591C21.9064 19.9591 21.5502 19.6029 21.5502 19.1629V16.6277C21.5502 16.1877 21.9064 15.8315 22.3464 15.8315C22.7864 15.8315 23.1426 16.1877 23.1426 16.6277V19.1629Z" fill="white"/>
<circle cx="17.477" cy="22.6274" r="1.90476" fill="white"/>
</svg>
